<svg width="253" height="253" viewBox="0 0 253 253" fill="none" xmlns="http://www.w3.org/2000/svg">
<rect x="0.5" y="0.5" width="116" height="116" rx="58" fill="#DBEFFF"/>
<path d="M58.64 37.468C58.5456 37.4303 58.4322 37.4113 58.3187 37.3923L40.7522 36.769C40.6388 36.769 40.5257 36.7881 40.4312 36.8067C31.6667 39.6401 26 46.5346 26 54.4113C26 64.8191 36.1622 73.3001 48.6667 73.3001C61.1711 73.3001 71.3333 64.8191 71.3333 54.4113C71.3333 47.1582 66.4787 40.6791 58.64 37.468Z" fill="#F44336"/>
<path d="M59.8864 36.0139C59.7542 35.7683 59.5277 35.5981 59.2631 35.5414C53.9178 34.3893 50.7821 36.4292 49.7055 37.3361L46.3997 36.6371C45.1342 35.1637 41.5832 34.0116 40.4311 33.6717C40.1475 33.5959 39.8075 33.6526 39.5809 33.8415C39.3544 34.0303 39.2033 34.3326 39.2219 34.6539C39.2219 34.786 39.4488 37.5436 40.752 39.9425C39.8265 40.4337 38.4852 41.0382 37.9187 41.2648C37.5033 41.435 37.2578 41.8694 37.3522 42.3228C37.5033 43.0782 38.3531 43.8149 43.3588 44.0037C44.6244 46.3836 46.041 48.0649 47.3252 48.6504C47.4577 48.7071 47.5898 48.7448 47.7219 48.7448C47.9108 48.7448 48.0809 48.6881 48.2511 48.5937C49.7622 47.5927 50.7064 46.2328 51.2543 44.2493C52.9355 44.665 55.4475 45.0804 57.6199 43.9093C57.9409 43.7395 58.1487 43.3804 58.111 43.0214C58.092 42.6438 57.8465 42.3228 57.5065 42.1903C56.7321 41.888 55.9577 41.3025 55.3344 40.755C56.9963 40.2071 59.0553 39.0928 59.9431 36.8069C60.0375 36.5427 60.0188 36.2594 59.8864 36.0139Z" fill="#4CAF50"/>
<path d="M53.4644 28.836C52.35 27.7213 50.4042 27.7213 49.2898 28.836L48.3456 29.7803C45.7955 32.3303 44.8887 36.4859 44.8887 39.2625V40.2448C44.8887 40.7736 45.3044 41.1893 45.8332 41.1893H49.6111C50.14 41.1893 50.5553 40.7736 50.5553 40.2448V39.2625C50.5553 36.4482 51.5753 34.8994 53.4644 33.0103C54.6165 31.8582 54.6165 29.9881 53.4644 28.836Z" fill="#388E3C"/>
<path d="M48.6667 73.3002C36.1622 73.3002 26 64.8192 26 54.4114C26 46.5347 31.6667 39.6402 40.4499 36.8259C40.9411 36.656 41.4699 36.9393 41.621 37.4304C41.7722 37.9216 41.5079 38.4504 41.0168 38.6202C33.0456 41.1703 27.8888 47.3658 27.8888 54.4114C27.8888 63.7802 37.2012 71.4114 48.6667 71.4114C60.1321 71.4114 69.4445 63.7802 69.4445 54.4114C69.4445 47.9513 65.0244 42.1148 57.9224 39.2248C57.4312 39.0359 57.2044 38.4691 57.4122 37.997C57.6201 37.5058 58.1679 37.2793 58.64 37.4872C66.4787 40.6791 71.3333 47.1582 71.3333 54.4114C71.3333 64.8192 61.1711 73.3002 48.6667 73.3002Z" fill="black"/>
<path d="M36.3887 65.688C36.1999 65.688 35.992 65.6312 35.8222 65.4991C31.9876 62.6471 29.7778 58.6046 29.7778 54.4114C29.7778 53.8825 30.1932 53.4668 30.722 53.4668C31.2512 53.4668 31.6666 53.8825 31.6666 54.4114C31.6666 58.0568 33.5367 61.457 36.9556 63.969C37.371 64.2713 37.4654 64.8759 37.1444 65.2913C36.9556 65.5558 36.6723 65.688 36.3887 65.688Z" fill="black"/>
<path d="M47.7219 48.7448C47.5898 48.7448 47.4577 48.7071 47.3252 48.6504C46.041 48.0649 44.6244 46.3649 43.3588 44.0037C38.3531 43.8149 37.5033 43.0782 37.3522 42.3228C37.2578 41.888 37.5033 41.435 37.9187 41.2648C38.4852 41.0192 39.8265 40.4337 40.752 39.9425C39.4488 37.5249 39.241 34.767 39.2219 34.6539C39.2033 34.3326 39.3354 34.0303 39.5809 33.8415C39.8265 33.6526 40.1475 33.5959 40.4498 33.6717C41.6966 34.0493 45.8332 35.3716 46.6833 37.0525C46.9289 37.5249 46.7397 38.0915 46.2676 38.3184C45.7955 38.5639 45.2286 38.3747 45.002 37.9026C44.7375 37.4115 43.0752 36.5994 41.3376 35.9571C41.5641 37.0338 41.9985 38.5259 42.8297 39.697C43.1133 40.1127 43.0375 40.6983 42.6221 41.0005C42.2441 41.2838 41.6209 41.6238 40.9786 41.9448C41.6966 42.0205 42.6789 42.0959 43.9631 42.1336C44.3221 42.1526 44.6244 42.3415 44.7942 42.6628C45.8709 44.8161 46.9289 46.0817 47.6842 46.6672C48.7042 45.8171 49.2897 44.665 49.6297 42.9083C49.6864 42.6438 49.8376 42.4172 50.0641 42.2847C50.291 42.1526 50.5553 42.1149 50.8198 42.1903C51.7077 42.4359 53.2565 42.8893 54.7866 42.7759C54.1443 42.2847 53.5965 41.7559 53.1811 41.3592C53.0109 41.1894 52.8788 41.0569 52.7653 40.9625C52.4821 40.7169 52.3686 40.3393 52.4821 39.9806C52.5765 39.6216 52.8788 39.357 53.2374 39.3193C54.2197 39.1681 56.3544 38.677 57.5632 37.185C52.9732 36.6181 50.7631 38.9039 50.6687 39.017C50.3097 39.3947 49.7241 39.4137 49.3274 39.0737C48.9497 38.7147 48.912 38.1292 49.2711 37.7515C49.4032 37.6003 52.6519 34.1438 59.2441 35.5794C59.5087 35.6358 59.7352 35.806 59.8677 36.0516C59.9998 36.2971 60.0188 36.5804 59.9244 36.845C59.0366 39.1305 56.9776 40.2448 55.3154 40.7927C55.9577 41.3405 56.7321 41.9448 57.4874 42.228C57.8465 42.3228 58.092 42.6438 58.111 43.0214C58.1297 43.3995 57.9409 43.7395 57.6199 43.9093C55.4475 45.0614 52.9355 44.665 51.2543 44.2493C50.7064 46.2138 49.7622 47.5737 48.2511 48.5937C48.0809 48.6881 47.9108 48.7448 47.7219 48.7448Z" fill="black"/>
<path d="M49.6111 41.1893C49.0819 41.1893 48.6666 40.7736 48.6666 40.2448V39.2625C48.6666 35.825 49.9888 33.8037 52.1422 31.6694C52.5576 31.2536 52.5576 30.5927 52.1422 30.177C51.7264 29.7616 51.0655 29.7616 50.6498 30.177L49.7055 31.1215C47.6843 33.1237 46.7778 36.6561 46.7778 39.2625V40.2448C46.7778 40.7736 46.3621 41.1893 45.8332 41.1893C45.3044 41.1893 44.8887 40.7736 44.8887 40.2448V39.2625C44.8887 36.4859 45.7955 32.3493 48.3643 29.7803L49.3088 28.836C50.4232 27.7213 52.3687 27.7213 53.4831 28.836C54.6355 29.9881 54.6355 31.8582 53.4831 33.0103C51.5943 34.8994 50.5744 36.4482 50.5744 39.2625V40.2448C50.5553 40.7736 50.14 41.1893 49.6111 41.1893Z" fill="black"/>
<path d="M83.8193 54.9504C83.7545 54.8721 83.664 54.801 83.5735 54.73L68.454 45.7651C68.3544 45.7107 68.246 45.6732 68.1542 45.6443C59.1037 43.9312 50.8262 47.2671 47.0517 54.1805C42.0643 63.3155 46.9197 75.629 57.8949 81.6212C68.8701 87.6133 81.8536 85.0392 86.841 75.9042C90.3167 69.5381 89.1606 61.525 83.8193 54.9504Z" fill="#F44336"/>
<path d="M85.6103 54.2712C85.612 53.9924 85.4947 53.7345 85.2896 53.5579C81.1501 49.9852 77.4204 50.2731 76.0408 50.5531L73.4743 48.3554C73.0696 46.4558 70.5049 43.743 69.6566 42.8925C69.444 42.6901 69.1184 42.577 68.8291 42.6342C68.5397 42.6913 68.2622 42.8842 68.1247 43.1752C68.0613 43.2912 66.9391 45.8202 66.9333 48.5503C65.8856 48.5378 64.4187 48.4257 63.8129 48.3531C63.3668 48.3034 62.9431 48.567 62.8086 49.0102C62.5793 49.7457 62.9722 50.7995 67.2752 53.364C67.2455 56.0593 67.6833 58.2138 68.5298 59.3431C68.6189 59.4564 68.7168 59.5528 68.8328 59.6161C68.9985 59.7066 69.1751 59.7383 69.3697 59.737C71.1756 59.5826 72.656 58.8414 74.0874 57.363C75.3638 58.5335 77.3696 60.1019 79.8375 60.115C80.2006 60.1197 80.5551 59.9042 80.694 59.5711C80.8583 59.2305 80.7966 58.8311 80.5617 58.5519C80.0268 57.9155 79.6277 57.0305 79.3431 56.2512C81.0642 56.5668 83.4054 56.5753 85.28 54.9945C85.4895 54.8078 85.6089 54.5502 85.6103 54.2712Z" fill="#4CAF50"/>
<path d="M83.4132 44.8936C82.9693 43.3812 81.2614 42.4487 79.7491 42.8931L78.4679 43.2694C75.0077 44.2856 72.2204 47.4984 70.8899 49.9355L70.4192 50.7976C70.1658 51.2618 70.3314 51.8259 70.7956 52.0793L74.1115 53.8896C74.5756 54.1431 75.1394 53.9772 75.3928 53.5131L75.8635 52.6509C77.2122 50.1808 78.8496 49.3102 81.4129 48.5574C82.9762 48.0982 83.8723 46.4568 83.4132 44.8936Z" fill="#388E3C"/>
<path d="M57.8947 81.6212C46.9195 75.629 42.0641 63.3155 47.0515 54.1805C50.826 47.2671 59.1035 43.9312 68.1613 45.67C68.6737 45.7563 69.0021 46.2583 68.8994 46.7618C68.7967 47.2653 68.3114 47.6028 67.799 47.5165C59.5806 45.935 52.0855 48.9016 48.7093 55.0856C44.2198 63.3087 48.7365 74.4691 58.7998 79.9634C68.8631 85.4576 80.6935 83.2222 85.183 74.9991C88.2787 69.3291 87.1959 62.0882 82.3474 56.1483C82.0068 55.7472 82.0793 55.1409 82.488 54.8262C82.9058 54.4947 83.4952 54.5584 83.8099 54.9671C89.1604 61.525 90.3165 69.5381 86.8408 75.9042C81.8534 85.0392 68.8699 87.6133 57.8947 81.6212Z" fill="black"/>
<path d="M50.7661 69.0561C50.6004 68.9656 50.4451 68.8163 50.3593 68.6189C48.3604 64.2781 48.358 59.6711 50.3674 55.9907C50.6209 55.5265 51.1847 55.3607 51.6488 55.6141C52.1133 55.8677 52.2786 56.4316 52.0252 56.8958C50.2783 60.0954 50.2904 63.9759 52.0874 67.8191C52.3071 68.2834 52.1003 68.8593 51.6195 69.0701C51.327 69.2118 51.015 69.192 50.7661 69.0561Z" fill="black"/>
<path d="M68.8328 59.6161C68.7168 59.5528 68.6189 59.4564 68.5298 59.3431C67.6833 58.2138 67.2545 56.0429 67.2752 53.364C62.9722 50.7995 62.5793 49.7457 62.8086 49.0102C62.9341 48.5834 63.3668 48.3034 63.8129 48.3531C64.4278 48.409 65.8856 48.5378 66.9333 48.5503C66.948 45.8038 68.0872 43.2836 68.1247 43.1752C68.2622 42.8842 68.5231 42.6822 68.8291 42.6342C69.1351 42.5861 69.444 42.6901 69.673 42.9014C70.5864 43.8304 73.5835 46.9732 73.5241 48.8559C73.5133 49.3883 73.0757 49.7949 72.5526 49.7678C72.0206 49.7571 71.6137 49.3194 71.6411 48.7964C71.6442 48.2386 70.5744 46.7293 69.3571 45.3329C69.04 46.3864 68.7063 47.9042 68.8745 49.3303C68.9243 49.8311 68.5772 50.3088 68.0677 50.3751C67.6002 50.4425 66.8902 50.4423 66.1727 50.4162C66.7666 50.8268 67.5926 51.3636 68.7017 52.0121C69.0077 52.2008 69.1825 52.5115 69.1776 52.8748C69.0907 55.2808 69.4129 56.8986 69.7953 57.7745C71.0979 57.5171 72.1639 56.7865 73.3041 55.4076C73.4807 55.2025 73.7219 55.0761 73.9842 55.0684C74.2467 55.0612 74.4967 55.1547 74.6928 55.3477C75.3544 55.9887 76.4965 57.1288 77.8938 57.7625C77.5654 57.0236 77.338 56.2969 77.1635 55.7497C77.0955 55.5191 77.043 55.3395 76.9887 55.2023C76.8578 54.851 76.9392 54.4651 77.2106 54.2047C77.4655 53.9349 77.8576 53.8475 78.1905 53.9863C79.1251 54.3243 81.234 54.9162 83.01 54.1858C79.253 51.4888 76.2178 52.436 76.0808 52.49C75.5847 52.6495 75.0616 52.3856 74.8763 51.8971C74.7169 51.401 74.9644 50.869 75.4605 50.7095C75.6489 50.6401 80.1567 49.1631 85.2547 53.5822C85.4599 53.7584 85.5772 54.0163 85.5758 54.2954C85.5741 54.5742 85.4551 54.8319 85.2454 55.0189C83.3709 56.5995 81.0298 56.5909 79.3083 56.2752C79.6095 57.0638 79.9996 57.9653 80.5269 58.5759C80.7966 58.8311 80.8583 59.2305 80.694 59.5711C80.5293 59.9118 80.2006 60.1197 79.8375 60.115C77.3787 60.0852 75.3638 58.5335 74.0874 57.363C72.6652 58.8247 71.1847 59.5659 69.3697 59.737C69.1751 59.7383 68.9985 59.7066 68.8328 59.6161Z" fill="black"/>
<path d="M74.1115 53.8896C73.647 53.6361 73.4816 53.0721 73.7351 52.608L74.2058 51.7458C75.853 48.7287 77.9821 47.5882 80.8949 46.7468C81.4587 46.581 81.7755 46.0008 81.6101 45.4369C81.4443 44.8731 80.8641 44.5564 80.3002 44.7217L79.0188 45.0983C76.2853 45.8871 73.797 48.553 72.548 50.8407L72.0773 51.7029C71.8239 52.167 71.2597 52.3327 70.7956 52.0793C70.3314 51.8259 70.1658 51.2618 70.4192 50.7976L70.8899 49.9355C72.2204 47.4984 74.9986 44.3023 78.4843 43.2783L79.7658 42.9022C81.2781 42.4578 82.9857 43.3901 83.4296 44.9025C83.889 46.466 82.9929 48.1074 81.4293 48.5663C78.8663 49.3193 77.2289 50.1899 75.8802 52.66L75.4095 53.5222C75.1394 53.9772 74.5756 54.1431 74.1115 53.8896Z" fill="black"/>
<rect x="136.5" y="0.5" width="116" height="116" rx="58" fill="#FBF3DA"/>
<path d="M208.633 37.2231H179.368L174.798 45.106V83.481C174.798 84.1322 175.326 84.6602 175.977 84.6602H212.023C212.674 84.6602 213.202 84.1323 213.202 83.481V45.106L208.633 37.2231Z" fill="#FFF9F0"/>
<path d="M204.063 63.5942C203.091 63.2806 201.928 63.0742 200.401 63.0742C194 63.0742 194 66.6917 187.599 66.6917C181.199 66.6917 181.199 63.0742 174.798 63.0742V83.481C174.798 84.1321 175.326 84.6601 175.977 84.6601H204.063V63.5942Z" fill="#5BDCFD"/>
<path d="M204.063 45.106V84.6601H212.023C212.674 84.6601 213.202 84.1322 213.202 83.481V45.106H204.063Z" fill="#E5D8C6"/>
<path d="M208.092 31.7983H179.908C179.61 31.7983 179.368 32.0404 179.368 32.339V41.1644H208.633V32.339C208.633 32.0403 208.391 31.7983 208.092 31.7983Z" fill="#5BDCFD"/>
<path d="M208.092 31.7983H203.024V41.1645H208.633V32.339C208.633 32.0403 208.391 31.7983 208.092 31.7983Z" fill="#48C7E5"/>
<path d="M208.633 37.2231H179.368L174.798 45.106H213.202L208.633 37.2231Z" fill="#B0EFFE"/>
<path d="M213.202 45.106L208.633 37.2231L204.063 45.106H213.202Z" fill="#F3E8D6"/>
<path d="M204.063 45.106H198.469V84.6601H204.063V45.106Z" fill="#F3E8D6"/>
<path d="M198.469 84.66H204.063V63.5942C203.091 63.2806 201.928 63.0742 200.401 63.0742C199.682 63.0742 199.044 63.1202 198.469 63.2012V84.66Z" fill="#48C7E5"/>
<path d="M203.038 37.2231L198.469 45.106H204.063L208.633 37.2231H203.038Z" fill="#5BDCFD"/>
<path d="M183.75 56.2907C183.646 56.4807 183.484 56.5377 183.332 56.5377C183.18 56.5377 183.028 56.4807 182.924 56.2907L181.831 54.239V58.3996C181.831 58.656 181.518 58.789 181.214 58.789C180.901 58.789 180.596 58.656 180.596 58.3996V52.4626C180.596 52.0067 180.9 51.8452 181.214 51.8452C181.66 51.8452 181.86 51.9402 182.173 52.5006L183.342 54.6284L184.51 52.5006C184.824 51.9402 185.033 51.8452 185.479 51.8452C185.792 51.8452 186.097 52.0067 186.097 52.4626V58.3996C186.097 58.656 185.783 58.789 185.479 58.789C185.166 58.789 184.862 58.656 184.862 58.3996V54.3148L183.75 56.2907Z" fill="#F9662B"/>
<path d="M187.237 52.225C187.237 51.9591 187.541 51.8452 187.854 51.8452C188.158 51.8452 188.472 51.9592 188.472 52.225V58.3995C188.472 58.6559 188.158 58.7889 187.854 58.7889C187.541 58.7889 187.237 58.6559 187.237 58.3995V52.225Z" fill="#F9662B"/>
<path d="M190.153 58.7889C189.878 58.7889 189.612 58.6559 189.612 58.3995V52.225C189.612 51.9591 189.916 51.8452 190.229 51.8452C190.533 51.8452 190.847 51.9592 190.847 52.225V57.706H193.164C193.411 57.706 193.535 57.972 193.535 58.2474C193.535 58.5134 193.411 58.7889 193.164 58.7889H190.153Z" fill="#F9662B"/>
<path d="M194.209 52.2251C194.209 51.9592 194.513 51.8453 194.827 51.8453C195.131 51.8453 195.444 51.9593 195.444 52.2251V54.8185L197.496 52.0257C197.591 51.8928 197.705 51.8452 197.838 51.8452C198.151 51.8452 198.55 52.1681 198.55 52.4816C198.55 52.5481 198.541 52.6336 198.474 52.719L196.774 54.8468L198.845 58.0004C198.892 58.0669 198.911 58.1428 198.911 58.2189C198.911 58.5228 198.531 58.8363 198.17 58.8363C198.009 58.8363 197.848 58.7699 197.743 58.5989L195.957 55.8916L195.444 56.5375V58.3994C195.444 58.6558 195.131 58.7888 194.827 58.7888C194.513 58.7888 194.209 58.6558 194.209 58.3994V52.2251H194.209Z" fill="#F9662B"/>
<path d="M213.202 74.7092C213.643 74.7092 214 74.3519 214 73.9113V45.1056C214 45.1054 214 45.1052 214 45.105C214 45.0703 213.998 45.0356 213.993 45.0011C213.992 44.9918 213.99 44.9828 213.988 44.9736C213.984 44.9486 213.98 44.9235 213.973 44.8988C213.969 44.8841 213.963 44.8698 213.958 44.8552C213.952 44.8367 213.947 44.8179 213.939 44.7998C213.926 44.7675 213.91 44.7359 213.893 44.7054L209.431 37.0082V32.3387C209.431 31.6005 208.83 31 208.092 31H179.908C179.17 31 178.57 31.6005 178.57 32.3387V37.0082L174.108 44.7054C174.106 44.7074 174.106 44.7096 174.105 44.7116C174.088 44.74 174.074 44.7694 174.061 44.7999C174.061 44.8009 174.06 44.8018 174.06 44.8027C174.048 44.8309 174.039 44.8601 174.03 44.8898C174.028 44.8975 174.026 44.9052 174.024 44.913C174.019 44.9367 174.014 44.9607 174.01 44.9852C174.009 44.9935 174.007 45.0016 174.006 45.0099C174.003 45.0401 174 45.0707 174 45.1019C174 45.1028 174 45.1038 174 45.1048C174 45.105 174 45.1052 174 45.1055L174 45.1019L174 83.4805C174 84.5707 174.887 85.4576 175.977 85.4576H212.023C213.113 85.4576 214 84.5706 214 83.4805V77.6241C214 77.1833 213.643 76.8262 213.202 76.8262C212.762 76.8262 212.404 77.1833 212.404 77.6241V83.4806C212.404 83.6908 212.233 83.8617 212.023 83.8617H204.861V45.9036H212.404V73.9113C212.404 74.3519 212.762 74.7092 213.202 74.7092ZM180.166 32.596H207.835V36.4248H180.166V32.596ZM203.265 83.8617H175.977C175.767 83.8617 175.596 83.6908 175.596 83.4806V63.893C178.062 64.0269 179.399 64.7822 180.806 65.5774C182.469 66.5175 184.189 67.4895 187.599 67.4895C191.009 67.4895 192.729 66.5175 194.392 65.5774C195.944 64.7004 197.41 63.872 200.401 63.872C201.55 63.872 202.474 63.9949 203.265 64.1955L203.265 83.8617ZM203.603 44.3077H183.776C183.335 44.3077 182.978 44.6649 182.978 45.1056C182.978 45.5463 183.335 45.9035 183.776 45.9035H203.265V62.5541C202.453 62.3807 201.518 62.2758 200.4 62.2758C196.99 62.2758 195.27 63.2479 193.607 64.1879C192.055 65.065 190.589 65.8935 187.599 65.8935C184.609 65.8935 183.143 65.065 181.591 64.1879C180.063 63.3244 178.486 62.4343 175.596 62.2953V45.9036H180.063C180.504 45.9036 180.861 45.5464 180.861 45.1057C180.861 44.6651 180.503 44.3078 180.063 44.3078H176.183L179.827 38.0209H207.248L203.603 44.3077ZM205.448 44.3077L208.633 38.8139L211.817 44.3077H205.448Z" fill="black"/>
<rect x="0.5" y="136.5" width="116" height="116" rx="58" fill="#DFF5F2"/>
<path d="M37.5193 176.316H40.6256C41.2043 176.316 41.7622 176.408 42.2864 176.577C43.0222 175.293 44.0868 174.222 45.3657 173.477C44.5161 173.108 43.5808 172.902 42.5996 172.902C40.022 172.902 37.7599 174.316 36.5459 176.405C36.8621 176.348 37.187 176.316 37.5193 176.316Z" fill="#E02F2F"/>
<path d="M56.5945 172.902C55.6138 172.902 54.6791 173.108 53.8298 173.476C55.108 174.221 56.1727 175.293 56.9082 176.577C56.8949 176.581 56.8821 176.587 56.8687 176.591C57.4041 176.413 57.9752 176.316 58.5683 176.316H61.6746C62.0068 176.316 62.3319 176.348 62.648 176.405C61.4343 174.316 59.1722 172.902 56.5945 172.902Z" fill="#E02F2F"/>
<path d="M44.3351 177.784C45.3092 176.874 46.6142 176.315 48.0442 176.315H51.1505C52.5805 176.315 53.8854 176.874 54.8595 177.784C55.4396 177.242 56.1369 176.825 56.9085 176.576C55.8538 174.734 54.1237 173.329 52.055 172.698C51.69 172.587 51.5194 172.163 51.7248 171.841C52.7159 170.291 54.4514 169.26 56.4239 169.26H57.5542C57.8725 169.26 58.1305 169.002 58.1305 168.684V166.423C58.1305 166.105 57.8725 165.847 57.5542 165.847H56.4239C52.3723 165.847 48.9392 168.542 47.8206 172.233C47.7636 172.421 47.614 172.568 47.4244 172.618C45.2303 173.203 43.3895 174.651 42.2866 176.576C43.0581 176.825 43.7552 177.243 44.3351 177.784Z" fill="#97D729"/>
<path d="M44.0666 177.548C45.1819 175.742 46.9595 174.389 49.0621 173.828C49.2518 173.778 49.4013 173.632 49.4583 173.444C50.5768 169.753 54.01 167.057 58.0616 167.057H58.1305V166.423C58.1305 166.105 57.8725 165.847 57.5542 165.847H56.4239C52.3723 165.847 48.9392 168.542 47.8206 172.233C47.7636 172.421 47.614 172.568 47.4244 172.618C45.2303 173.203 43.3895 174.651 42.2866 176.576C42.9421 176.788 43.5445 177.121 44.0666 177.548Z" fill="#8BC727"/>
<path d="M43.4531 207.263H43.5669C43.547 207.263 43.5274 207.261 43.5074 207.261C43.489 207.261 43.4719 207.263 43.4531 207.263Z" fill="#E02F2F"/>
<path d="M42.5999 201.232V181.759C42.5999 180.195 43.2694 178.78 44.335 177.785C43.3609 176.875 42.056 176.315 40.626 176.315H37.5197C34.5254 176.315 32.0754 178.765 32.0754 181.759L34.6641 196.68C34.8277 197.623 34.9642 198.571 35.0551 199.524C35.4654 203.83 39.1053 207.231 43.5077 207.261C44.3239 207.253 44.8853 207.059 45.2689 206.718C43.6466 205.434 42.5999 203.45 42.5999 201.232Z" fill="#E02F2F"/>
<path d="M39.9253 199.524C39.8345 198.571 39.6979 197.623 39.5343 196.68L36.9457 181.759C36.9457 179.065 38.9293 176.813 41.5079 176.388C41.2205 176.341 40.9262 176.315 40.626 176.315H37.5197C34.5254 176.315 32.0754 178.765 32.0754 181.759L34.6641 196.68C34.8277 197.623 34.9642 198.571 35.0551 199.524C35.4654 203.83 39.1053 207.231 43.5077 207.261C44.3606 207.252 44.9341 207.04 45.3184 206.67C42.3872 205.512 40.2351 202.776 39.9253 199.524Z" fill="#F84646"/>
<path d="M43.4531 207.263H43.5669C43.547 207.263 43.5274 207.261 43.5074 207.261C43.489 207.261 43.4719 207.263 43.4531 207.263Z" fill="#F84646"/>
<path d="M61.6747 176.315H58.5684C57.0987 176.315 55.7609 176.906 54.7788 177.861C55.8238 178.835 56.4792 180.222 56.4792 181.759V189.022C57.6004 188.256 58.9531 187.807 60.406 187.807C61.3872 187.807 62.3224 188.012 63.1721 188.381C63.1404 188.399 63.1096 188.419 63.0781 188.438C63.742 188.039 64.4639 187.728 65.2305 187.523C65.4202 187.473 65.5697 187.326 65.6266 187.139C65.846 186.415 66.1555 185.73 66.54 185.096L67.1189 181.759C67.1189 178.765 64.669 176.315 61.6747 176.315Z" fill="#F84646"/>
<path d="M49.8818 196.664C49.8818 194.002 51.8187 191.772 54.3525 191.309C54.9054 190.358 55.6762 189.547 56.5947 188.946V181.759C56.5947 178.765 54.1448 176.315 51.1504 176.315H48.0441C45.0498 176.315 42.5999 178.765 42.5999 181.759V201.232C42.5999 205.081 45.7487 208.23 49.5972 208.23C50.3752 208.23 51.1238 208.099 51.8243 207.862L49.8818 196.664Z" fill="#E02F2F"/>
<path d="M51.7928 207.68C49.2787 206.617 47.5026 204.122 47.5026 201.232V181.759C47.5026 179.071 49.4779 176.823 52.0486 176.391C51.756 176.342 51.4562 176.315 51.1504 176.315H48.0441C45.0498 176.315 42.5999 178.765 42.5999 181.759V201.232C42.5999 205.081 45.7487 208.23 49.5972 208.23C50.3752 208.23 51.1238 208.099 51.8243 207.862L51.7928 207.68Z" fill="#F84646"/>
<path d="M55.3257 191.221H58.432C59.0107 191.221 59.5686 191.313 60.0928 191.482C60.8286 190.198 61.8932 189.126 63.1721 188.382C62.3225 188.013 61.3872 187.807 60.406 187.807C57.8284 187.807 55.5663 189.221 54.3523 191.31C54.6686 191.252 54.9935 191.221 55.3257 191.221Z" fill="#FEDF30"/>
<path d="M74.4009 187.807C73.4205 187.807 72.4859 188.012 71.6367 188.381C72.9151 189.126 73.9792 190.197 74.7147 191.482C75.2387 191.313 75.7964 191.221 76.3749 191.221H79.4812C79.8134 191.221 80.1384 191.252 80.4546 191.31C79.2406 189.221 76.9785 187.807 74.4009 187.807Z" fill="#FEDF30"/>
<path d="M62.1414 192.69C63.1155 191.78 64.4205 191.22 65.8504 191.22H68.9568C70.3867 191.22 71.6917 191.78 72.6658 192.69C73.2459 192.148 73.9432 191.731 74.7148 191.482C73.66 189.64 71.9299 188.234 69.8613 187.604C69.4963 187.492 69.3257 187.068 69.5312 186.747C70.5222 185.196 72.2577 184.166 74.2303 184.166H75.3606C75.6789 184.166 75.9369 183.908 75.9369 183.589V181.329C75.9369 181.011 75.6789 180.752 75.3606 180.752H74.2303C70.1787 180.752 66.7456 183.447 65.6269 187.139C65.57 187.327 65.4204 187.473 65.2308 187.524C63.0367 188.108 61.1959 189.556 60.093 191.482C60.8644 191.731 61.5614 192.148 62.1414 192.69Z" fill="#97D729"/>
<path d="M61.7624 192.368C62.873 190.509 64.679 189.114 66.822 188.543C67.0118 188.493 67.1613 188.346 67.2182 188.158C68.3367 184.467 71.7699 181.772 75.8215 181.772H75.9369V181.33C75.9369 181.011 75.6789 180.753 75.3606 180.753H74.2303C70.1787 180.753 66.7456 183.448 65.6269 187.14C65.57 187.328 65.4204 187.474 65.2308 187.524C63.0367 188.109 61.1959 189.557 60.093 191.483C60.703 191.679 61.2663 191.982 61.7624 192.368Z" fill="#8BC727"/>
<path d="M61.2595 222.167H61.3733C61.3533 222.167 61.3338 222.166 61.3138 222.166C61.2954 222.166 61.2783 222.167 61.2595 222.167Z" fill="#FEDF30"/>
<path d="M60.521 216.138V196.665C60.521 195.127 61.1763 193.741 62.2213 192.767C61.2392 191.812 59.9014 191.221 58.4317 191.221H55.3254C52.3311 191.221 49.8811 193.671 49.8811 196.665L52.4698 211.586C52.6333 212.529 52.77 213.477 52.8607 214.43C53.2711 218.736 56.911 222.136 61.3133 222.167C62.1888 222.158 62.7701 221.934 63.1544 221.546C61.5526 220.285 60.521 218.33 60.521 216.138Z" fill="#FEDF30"/>
<path d="M61.2595 222.167H61.3733C61.3533 222.167 61.3338 222.166 61.3138 222.166C61.2954 222.166 61.2783 222.167 61.2595 222.167Z" fill="#FED402"/>
<path d="M57.7282 214.43C57.6374 213.477 57.5008 212.529 57.3372 211.586L54.7486 196.665C54.7486 193.97 56.7329 191.718 59.3122 191.294C59.0253 191.246 58.7314 191.221 58.4317 191.221H55.3254C52.3311 191.221 49.8811 193.671 49.8811 196.665L52.4698 211.586C52.6333 212.529 52.77 213.477 52.8607 214.43C53.2711 218.736 56.911 222.136 61.3133 222.167C62.1657 222.158 62.7389 221.946 63.1233 221.576C60.1911 220.419 58.0381 217.683 57.7282 214.43Z" fill="#FED402"/>
<path d="M73.5476 222.167C73.5288 222.167 73.5118 222.166 73.4933 222.166C73.4734 222.166 73.4538 222.167 73.4338 222.167H73.5476Z" fill="#FED402"/>
<path d="M79.4811 191.221H76.3748C74.905 191.221 73.5672 191.812 72.5852 192.767C73.6303 193.741 74.2856 195.127 74.2856 196.665V216.138C74.2856 218.33 73.254 220.285 71.6521 221.546C72.0364 221.934 72.6176 222.158 73.4931 222.167C77.8955 222.136 81.5354 218.736 81.9457 214.43C82.0365 213.477 82.1731 212.529 82.3367 211.586L84.9253 196.665C84.9253 193.671 82.4755 191.221 79.4811 191.221Z" fill="#FED402"/>
<path d="M67.4036 223.135C63.5551 223.135 60.4062 219.987 60.4062 216.138V196.665C60.4062 193.671 62.8561 191.221 65.8505 191.221H68.9568C71.9511 191.221 74.4011 193.671 74.4011 196.665V216.138C74.4009 219.987 71.2521 223.135 67.4036 223.135Z" fill="#FEDF30"/>
<path d="M66.2234 216.138V196.665C66.2234 194.138 67.9681 191.999 70.3122 191.393C69.8786 191.281 69.4243 191.221 68.9568 191.221H65.8505C62.8562 191.221 60.4062 193.671 60.4062 196.665V216.138C60.4062 219.987 63.5551 223.135 67.4036 223.135C68.4401 223.135 69.4249 222.905 70.3121 222.496C67.9055 221.387 66.2234 218.95 66.2234 216.138Z" fill="#FED402"/>
<path d="M81.0005 190.543C79.5987 188.379 77.1651 186.943 74.4005 186.943C73.448 186.943 72.535 187.114 71.6894 187.426C71.2989 187.221 70.8943 187.044 70.4786 186.898C71.3692 185.722 72.7449 185.031 74.2296 185.031H75.3601C76.1546 185.031 76.8009 184.385 76.8009 183.591V181.33C76.8009 180.535 76.1546 179.889 75.3601 179.889H74.2296C72.0751 179.889 70.0271 180.575 68.3075 181.872C68.1764 181.971 68.0491 182.074 67.9233 182.18L67.9704 181.908C67.9789 181.859 67.9831 181.81 67.9831 181.76C67.9831 178.806 65.9408 176.32 63.1942 175.638C61.7924 173.474 59.3588 172.038 56.5941 172.038C55.6417 172.038 54.7286 172.209 53.883 172.521C53.4927 172.316 53.0884 172.139 52.6732 171.993C52.8518 171.759 53.0543 171.54 53.278 171.338C53.6327 171.019 53.6611 170.472 53.3416 170.117C53.0219 169.763 52.4753 169.734 52.1205 170.054C51.6838 170.448 51.3055 170.893 50.996 171.377C50.7538 171.755 50.7044 172.215 50.8603 172.638C51.0165 173.062 51.3689 173.394 51.8025 173.526C53.3738 174.005 54.6896 174.951 55.6239 176.185C55.3576 176.326 55.1019 176.485 54.8596 176.662C53.8176 175.902 52.5356 175.451 51.15 175.451H48.0437C46.658 175.451 45.376 175.902 44.334 176.662C44.0934 176.487 43.8397 176.328 43.5753 176.188C44.5625 174.884 45.9716 173.901 47.6466 173.455C48.1212 173.328 48.5048 172.957 48.6476 172.485C49.6775 169.087 52.8751 166.713 56.4234 166.713H57.2657V168.397H56.4713C55.9938 168.397 55.6068 168.784 55.6068 169.262C55.6068 169.739 55.9938 170.126 56.4713 170.126H57.5538C58.3484 170.126 58.9947 169.48 58.9947 168.685V166.425C58.9947 165.63 58.3484 164.984 57.5538 164.984H56.4234C54.2688 164.984 52.2209 165.67 50.5013 166.967C48.8828 168.188 47.659 169.909 47.0415 171.828C46.4315 172.002 45.8514 172.235 45.3054 172.519C44.4613 172.208 43.5499 172.038 42.5994 172.038C39.8348 172.038 37.401 173.474 35.9994 175.638C33.2527 176.32 31.2104 178.806 31.2104 181.76C31.2104 181.81 31.2147 181.859 31.2231 181.908L33.8118 196.829C33.9872 197.84 34.1122 198.749 34.194 199.607C34.4146 201.922 35.4894 204.07 37.2205 205.654C38.9229 207.213 41.1126 208.087 43.4028 208.127C43.4194 208.128 43.436 208.128 43.4529 208.128H43.5666C43.5897 208.128 43.6126 208.127 43.6352 208.126C44.2617 208.107 44.7918 207.989 45.2362 207.771C46.4849 208.607 47.9848 209.095 49.5969 209.095C50.123 209.095 50.6367 209.043 51.134 208.943L51.6181 211.734C51.7935 212.745 51.9185 213.654 52.0002 214.512C52.2208 216.827 53.2957 218.975 55.0267 220.559C56.7291 222.118 58.9186 222.992 61.2088 223.032C61.2254 223.033 61.2421 223.033 61.259 223.033H61.3727C61.3958 223.033 61.4187 223.032 61.4414 223.031C62.0679 223.012 62.598 222.894 63.0422 222.676C64.2912 223.512 65.791 224 67.4031 224C69.0152 224 70.5151 223.512 71.7639 222.676C72.2082 222.894 72.7382 223.012 73.3647 223.03C73.3873 223.032 73.4103 223.033 73.4334 223.033H73.5471C73.564 223.033 73.5807 223.033 73.5973 223.031C75.8875 222.992 78.0771 222.117 79.7795 220.559C81.5107 218.974 82.5855 216.827 82.806 214.512C82.8877 213.654 83.0127 212.745 83.1881 211.734L85.7768 196.813C85.7852 196.764 85.7895 196.714 85.7895 196.665C85.7895 193.71 83.7473 191.225 81.0005 190.543ZM74.4005 188.672C76.0315 188.672 77.5138 189.314 78.6132 190.356H76.3744C75.9415 190.356 75.5188 190.401 75.1102 190.484C75.019 190.349 74.9255 190.214 74.8265 190.083C74.4559 189.59 74.035 189.137 73.5752 188.729C73.8453 188.692 74.1205 188.672 74.4005 188.672ZM74.2297 181.618H75.072V183.302H74.2297C72.0238 183.302 69.995 184.416 68.8023 186.282C68.5603 186.66 68.5108 187.12 68.6667 187.543C68.8228 187.967 69.1751 188.299 69.6087 188.431C71.1796 188.91 72.495 189.855 73.4293 191.088C73.1628 191.23 72.9076 191.39 72.6655 191.566C71.6236 190.806 70.3418 190.356 68.9563 190.356H65.85C64.4645 190.356 63.1828 190.806 62.1409 191.566C61.9004 191.391 61.6471 191.232 61.3826 191.091C62.3699 189.789 63.7785 188.806 65.4529 188.36C65.9276 188.233 66.3112 187.862 66.4539 187.39C67.4837 183.992 70.6814 181.618 74.2297 181.618ZM60.4058 188.672C60.6821 188.672 60.9536 188.692 61.2202 188.728C60.6376 189.247 60.1235 189.837 59.6905 190.483C59.2836 190.4 58.8628 190.356 58.4318 190.356H56.193C57.2924 189.314 58.7747 188.672 60.4058 188.672ZM57.0204 175.178C56.6497 174.685 56.2287 174.233 55.7689 173.824C56.039 173.787 56.3143 173.767 56.5943 173.767C58.2254 173.767 59.7077 174.409 60.8071 175.451H58.5682C58.1352 175.451 57.7124 175.495 57.3039 175.579C57.2128 175.444 57.1192 175.309 57.0204 175.178ZM43.4124 173.822C42.8299 174.342 42.3181 174.933 41.8851 175.578C41.478 175.495 41.0568 175.451 40.6255 175.451H38.3866C39.486 174.409 40.9683 173.767 42.5994 173.767C42.8752 173.767 43.1463 173.787 43.4124 173.822ZM43.5029 206.399C41.6098 206.383 39.7954 205.667 38.388 204.379C36.9733 203.084 36.0951 201.331 35.9152 199.443C35.8291 198.54 35.6983 197.589 35.5153 196.534L32.94 181.689C32.9782 179.196 35.0177 177.181 37.5192 177.181H40.6255C41.5231 177.181 42.3601 177.441 43.0674 177.89C42.2336 178.959 41.7349 180.302 41.7349 181.76V201.233C41.7349 203.207 42.4673 205.011 43.6723 206.393C43.6174 206.396 43.5617 206.398 43.5029 206.399ZM49.5968 207.366C46.2151 207.366 43.4639 204.615 43.4639 201.233V181.76C43.4639 179.235 45.5183 177.181 48.0436 177.181H51.1499C53.6751 177.181 55.7295 179.235 55.7295 181.76V182.274C55.7295 182.751 56.1166 183.138 56.594 183.138C57.0715 183.138 57.4585 182.751 57.4585 182.274V181.76C57.4585 180.302 56.9599 178.959 56.126 177.889C56.8333 177.441 57.6704 177.18 58.568 177.18H61.6744C64.1759 177.18 66.2154 179.196 66.2536 181.689L65.7137 184.801C65.357 185.412 65.0642 186.06 64.8477 186.733C64.2376 186.907 63.6573 187.14 63.1114 187.424C62.2673 187.113 61.3561 186.943 60.4058 186.943C59.3638 186.943 58.3692 187.148 57.4586 187.518V186.308C57.4586 185.831 57.0716 185.444 56.5941 185.444C56.1167 185.444 55.7296 185.831 55.7296 186.308V188.491C54.9725 189.054 54.3197 189.749 53.8057 190.543C51.0589 191.225 49.0168 193.71 49.0168 196.665C49.0168 196.715 49.021 196.764 49.0294 196.813L50.8381 207.238C50.4371 207.321 50.0222 207.366 49.5968 207.366ZM61.3091 221.304C59.416 221.288 57.6017 220.572 56.1942 219.284C54.7795 217.989 53.9013 216.236 53.7214 214.348C53.6354 213.445 53.5045 212.494 53.3215 211.438L50.7462 196.594C50.7844 194.101 52.8238 192.086 55.3254 192.086H58.4317C59.3293 192.086 60.1666 192.346 60.8739 192.794C60.0399 193.864 59.5411 195.207 59.5411 196.665V216.138C59.5411 218.112 60.2737 219.916 61.479 221.298C61.4241 221.301 61.3678 221.303 61.3091 221.304ZM81.4845 211.439C81.3013 212.494 81.1706 213.446 81.0847 214.348C80.9047 216.236 80.0266 217.989 78.6119 219.284C77.2044 220.572 75.3901 221.288 73.497 221.304C73.4383 221.303 73.382 221.301 73.3271 221.298C74.5324 219.916 75.265 218.112 75.265 216.138V208.67C75.265 208.192 74.878 207.805 74.4005 207.805C73.9229 207.805 73.536 208.192 73.536 208.67V216.138C73.536 219.52 70.7848 222.271 67.4031 222.271C64.0214 222.271 61.2703 219.52 61.2703 216.138V196.665C61.2703 194.14 63.3246 192.086 65.8499 192.086H68.9562C71.4815 192.086 73.5358 194.14 73.5358 196.665V204.635C73.5358 205.113 73.9228 205.5 74.4003 205.5C74.8779 205.5 75.2648 205.113 75.2648 204.635V196.665C75.2648 195.207 74.7661 193.864 73.9321 192.794C74.6394 192.346 75.4767 192.085 76.3743 192.085H79.4806C81.9821 192.085 84.0216 194.101 84.0598 196.594L81.4845 211.439Z" fill="black"/>
<rect x="136.5" y="136.5" width="116" height="116" rx="58" fill="#F6E2FF"/>
<path d="M179.676 196.241C179.429 196.693 179.333 197.125 179.436 197.488C179.895 199.394 182.541 199.031 182.541 199.031C184.653 198.852 187.168 197.008 187.82 195.157C188.485 193.265 191.213 193.54 191.213 193.54C191.213 193.54 191.261 193.54 191.302 193.553C186.839 190.701 181.006 193.821 179.676 196.241Z" fill="#F4D316"/>
<path d="M182.027 199.751C180.841 199.751 179.182 199.326 178.771 197.667C178.627 197.146 178.73 196.536 179.073 195.919C179.971 194.28 182.356 192.69 184.858 192.052C186.606 191.607 189.211 191.408 191.679 192.985C191.967 193.17 192.077 193.533 191.94 193.842C191.81 194.136 191.494 194.294 191.179 194.239C191.172 194.239 191.158 194.239 191.151 194.239C191.131 194.239 188.944 194.047 188.471 195.398C187.731 197.495 185.002 199.518 182.624 199.723C182.445 199.737 182.247 199.751 182.027 199.751ZM180.272 196.57C180.108 196.865 180.046 197.125 180.094 197.297C180.094 197.303 180.101 197.317 180.101 197.324C180.149 197.509 180.286 198.085 181.273 198.297C181.869 198.428 182.445 198.352 182.452 198.352C182.466 198.352 182.473 198.352 182.486 198.345C184.337 198.188 186.613 196.529 187.175 194.932C187.443 194.171 187.991 193.602 188.773 193.245C187.436 192.964 186.168 193.129 185.201 193.375C183.412 193.828 181.081 195.103 180.272 196.57Z" fill="black"/>
<path d="M194.593 197.454C196.437 202.348 193.002 206.455 192.228 207.305C192.804 206.702 193.345 206.112 193.661 205.605C195.573 202.348 199.09 201.245 199.09 201.245C199.09 201.245 203.395 198.907 207.707 199.641C208.687 198.448 209.578 197.138 210.298 195.815C211.546 193.533 212.444 191.072 213.122 188.453C214.343 183.73 214.775 177.862 213.02 173.227C212.218 171.102 209.976 166.626 207.049 168.491C206.219 169.018 205.643 169.896 205.335 170.808C203.669 175.634 203.553 180.823 202.038 185.704C201.153 188.542 199.892 191.36 198.123 193.786C198.096 193.827 198.068 193.869 198.034 193.903C197.054 195.226 195.909 196.432 194.593 197.454Z" fill="#F9EDB2"/>
<path d="M192.228 207.99C192.056 207.99 191.892 207.929 191.761 207.805C191.487 207.545 191.473 207.12 191.727 206.839C192.118 206.421 193.091 205.262 193.763 203.631C194.606 201.595 194.675 199.6 193.955 197.694C193.852 197.413 193.941 197.097 194.174 196.912C195.381 195.973 196.498 194.822 197.485 193.478C197.513 193.437 197.54 193.403 197.568 193.361C199.144 191.202 200.426 188.549 201.379 185.485C202.085 183.216 202.49 180.816 202.887 178.492C203.333 175.867 203.792 173.159 204.683 170.568C205.081 169.409 205.794 168.463 206.678 167.901C207.549 167.346 208.488 167.209 209.386 167.503C210.36 167.826 211.285 168.648 212.142 169.951C212.903 171.102 213.417 172.336 213.657 172.974C215.227 177.128 215.275 182.832 213.78 188.618C213.04 191.483 212.094 193.944 210.894 196.138C210.154 197.495 209.228 198.859 208.228 200.073C208.07 200.265 207.823 200.354 207.583 200.313C203.566 199.634 199.453 201.821 199.412 201.841C199.371 201.862 199.33 201.882 199.288 201.889C199.254 201.896 195.998 202.966 194.243 205.948C194.243 205.954 194.236 205.954 194.236 205.961C193.88 206.537 193.29 207.175 192.714 207.771C192.591 207.922 192.406 207.99 192.228 207.99ZM195.402 197.687C195.888 199.223 195.95 200.806 195.593 202.403C197.074 201.238 198.5 200.717 198.822 200.607C199.364 200.326 203.292 198.366 207.419 198.9C208.269 197.831 209.057 196.652 209.695 195.48C210.846 193.382 211.744 191.024 212.457 188.275C213.883 182.756 213.856 177.354 212.375 173.461C211.642 171.514 210.36 169.272 208.961 168.806C208.454 168.641 207.953 168.724 207.426 169.06C206.795 169.457 206.288 170.156 205.993 171.02C205.136 173.502 204.683 176.155 204.252 178.725C203.854 181.091 203.436 183.538 202.702 185.896C201.695 189.111 200.344 191.894 198.678 194.177C198.651 194.218 198.617 194.259 198.589 194.301C197.629 195.596 196.56 196.734 195.402 197.687Z" fill="black"/>
<path d="M192.228 207.305C192.18 207.36 192.125 207.414 192.077 207.462C192.077 207.469 192.132 207.414 192.228 207.305Z" fill="white"/>
<path d="M192.077 208.155C191.905 208.155 191.727 208.086 191.597 207.956C191.33 207.695 191.323 207.264 191.583 206.996L191.734 206.839C191.995 206.564 192.426 206.551 192.701 206.811C192.975 207.072 192.989 207.497 192.735 207.778C192.632 207.894 192.564 207.956 192.557 207.963C192.42 208.086 192.248 208.155 192.077 208.155Z" fill="black"/>
<path d="M211.134 201.019C212.649 202.081 213.623 203.493 214.164 205.07C216.269 201.985 215.734 194.431 210.305 195.809C209.578 197.132 208.687 198.441 207.707 199.641C208.879 199.84 210.044 200.265 211.134 201.019Z" fill="#FFF5CC"/>
<path d="M214.164 205.762C214.137 205.762 214.103 205.762 214.068 205.755C213.808 205.721 213.595 205.543 213.513 205.296C212.985 203.753 212.053 202.499 210.744 201.58C209.825 200.936 208.762 200.511 207.597 200.312C207.357 200.271 207.151 200.106 207.069 199.873C206.987 199.64 207.028 199.387 207.186 199.201C208.132 198.05 209.002 196.768 209.708 195.479C209.798 195.315 209.955 195.191 210.14 195.143C212.149 194.636 213.828 195.184 214.884 196.692C216.571 199.112 216.2 203.315 214.74 205.46C214.596 205.652 214.384 205.762 214.164 205.762ZM208.913 199.215C209.859 199.489 210.737 199.908 211.525 200.463C212.656 201.258 213.554 202.252 214.192 203.445C214.816 201.594 214.809 199.01 213.746 197.488C213.068 196.521 212.06 196.165 210.744 196.418C210.209 197.364 209.585 198.317 208.913 199.215Z" fill="black"/>
<path d="M199.09 201.245C199.09 201.245 195.573 202.348 193.66 205.605C193.345 206.112 192.803 206.702 192.228 207.305C192.132 207.408 192.077 207.462 192.077 207.462C192.125 207.408 192.18 207.353 192.228 207.305C193.009 206.455 196.437 202.348 194.593 197.454C194.449 197.077 194.222 196.713 193.976 196.336C192.975 197.899 190.445 199.456 188.916 200.408C186.743 201.759 184.509 203.013 182.226 204.158C180.704 204.926 179.813 206.03 179.305 206.948C179.059 207.449 178.853 208.004 178.668 208.6C178.668 208.6 178.085 210.636 178.901 212.419C179.751 214.256 182.096 215.819 188.149 214.551C200.001 212.069 205.074 203.788 205.074 203.788C204.108 201.869 202.161 200.785 199.09 201.245Z" fill="#F4D316"/>
<path d="M180.464 213.618C179.134 213.618 178.524 213.049 178.236 212.563C178.174 212.453 178.14 212.336 178.14 212.22C178.14 211.987 178.264 211.754 178.483 211.623C178.812 211.431 179.23 211.541 179.422 211.87C179.744 212.419 181.095 212.364 183.028 211.706C185.002 211.041 187.086 209.951 188.156 209.361C188.485 209.176 188.903 209.3 189.088 209.629C189.143 209.731 189.17 209.848 189.17 209.958C189.17 210.198 189.04 210.431 188.814 210.561C187.703 211.171 185.53 212.302 183.46 213.001C182.301 213.392 181.314 213.598 180.533 213.611C180.519 213.618 180.491 213.618 180.464 213.618Z" fill="#E59A05"/>
<path d="M184.234 215.689C183.144 215.689 182.192 215.558 181.369 215.298C179.902 214.832 178.86 213.954 178.284 212.7C177.372 210.712 177.989 208.504 178.017 208.408C178.017 208.402 178.017 208.402 178.024 208.395C178.236 207.709 178.455 207.133 178.695 206.64C178.702 206.626 178.709 206.619 178.709 206.606C179.436 205.282 180.553 204.22 181.924 203.534C184.2 202.396 186.435 201.142 188.56 199.819L188.67 199.75C190.109 198.852 192.516 197.358 193.407 195.959C193.53 195.761 193.749 195.644 193.983 195.644C194.216 195.644 194.435 195.767 194.558 195.959L194.565 195.966C194.812 196.357 195.073 196.761 195.237 197.207C195.875 198.893 195.991 200.635 195.594 202.403C197.232 201.115 198.788 200.614 198.891 200.58C198.925 200.566 198.959 200.559 198.994 200.552C202.127 200.086 204.505 201.121 205.698 203.459C205.808 203.672 205.794 203.925 205.671 204.131C205.616 204.22 204.313 206.318 201.516 208.744C198.946 210.972 194.565 213.899 188.3 215.209C186.791 215.531 185.434 215.689 184.234 215.689ZM180.889 213.598C182.699 214.64 185.605 214.379 188.019 213.872C193.996 212.618 198.171 209.827 200.618 207.709C202.627 205.968 203.82 204.405 204.279 203.747C203.319 202.211 201.592 201.581 199.254 201.91C198.85 202.054 195.888 203.164 194.257 205.947C194.257 205.954 194.25 205.954 194.25 205.961C193.893 206.537 193.304 207.168 192.735 207.771C192.632 207.881 192.57 207.942 192.564 207.949C192.296 208.21 191.871 208.21 191.604 207.949C191.336 207.689 191.33 207.257 191.59 206.989L191.741 206.832C192.42 206.091 195.676 202.225 193.969 197.694C193.948 197.646 193.928 197.598 193.907 197.55C192.68 198.873 190.761 200.073 189.403 200.916L189.294 200.984C187.127 202.335 184.858 203.603 182.548 204.761C181.41 205.33 180.533 206.174 179.929 207.257C179.724 207.682 179.532 208.182 179.347 208.786C179.326 208.875 178.915 210.444 179.443 211.87C179.689 212.631 180.21 213.18 180.889 213.598Z" fill="black"/>
<path d="M198.041 193.889C198.041 193.546 197.945 193.313 197.945 193.313C197.945 193.313 196.772 189.536 190.891 189.714C184.296 189.913 181.191 193.724 179.744 196.076C179.744 196.076 179.703 196.151 179.676 196.24C181.012 193.814 186.846 190.694 191.309 193.553C192.008 193.999 192.673 194.595 193.283 195.356C193.516 195.644 193.722 195.939 193.914 196.227C193.941 196.261 193.962 196.302 193.989 196.336C194.229 196.713 194.462 197.077 194.606 197.454C195.909 196.432 197.054 195.226 198.041 193.889Z" fill="#FFF5CC"/>
<path d="M194.593 198.14C194.531 198.14 194.469 198.133 194.408 198.112C194.195 198.051 194.031 197.9 193.955 197.694C193.839 197.386 193.626 197.057 193.407 196.707L193.4 196.7C193.379 196.666 193.352 196.632 193.331 196.597C193.153 196.323 192.954 196.049 192.742 195.781C192.207 195.103 191.597 194.548 190.932 194.129C188.882 192.82 186.675 192.991 185.194 193.368C183.412 193.821 181.081 195.096 180.272 196.57C180.101 196.878 179.731 197.009 179.408 196.871C179.086 196.734 178.915 196.378 179.018 196.042C179.059 195.898 179.127 195.775 179.148 195.74C179.155 195.733 179.155 195.727 179.162 195.72C180.231 193.979 181.485 192.608 182.994 191.531C185.194 189.961 187.84 189.125 190.877 189.029C192.68 188.974 195.216 189.262 197.088 190.935C198.157 191.895 198.534 192.902 198.596 193.081C198.63 193.176 198.726 193.471 198.733 193.876C198.733 194.027 198.685 194.17 198.596 194.287C197.534 195.727 196.327 196.967 195.025 197.982C194.894 198.092 194.743 198.14 194.593 198.14ZM187.319 191.723C188.677 191.723 190.198 192.032 191.672 192.971C192.461 193.478 193.18 194.136 193.811 194.925C194.051 195.226 194.277 195.535 194.476 195.843C194.504 195.884 194.531 195.925 194.552 195.96L194.558 195.967C194.641 196.104 194.73 196.241 194.812 196.378C195.71 195.596 196.553 194.691 197.328 193.684C197.314 193.615 197.3 193.574 197.3 193.56C197.294 193.54 197.294 193.54 197.287 193.519C197.246 193.389 196.156 190.242 190.911 190.4C188.526 190.476 186.428 191.045 184.625 192.107C184.701 192.087 184.783 192.066 184.858 192.045C185.564 191.867 186.408 191.723 187.319 191.723Z" fill="black"/>
<path d="M178.675 208.6C178.86 208.004 179.065 207.449 179.312 206.948C178.88 207.723 178.263 208.388 177.53 208.881C176.728 209.416 175.844 209.656 174.898 209.773C174.397 209.834 173.684 209.711 173.341 210.17C173.204 210.355 173.136 210.588 173.088 210.821C172.985 211.308 172.937 211.815 173.026 212.309C173.095 212.665 173.273 212.899 173.609 213.036C174.198 213.289 174.918 213.207 175.535 213.132C175.72 213.111 175.905 213.084 176.09 213.056C177.043 212.926 177.996 212.686 178.922 212.419C178.092 210.636 178.675 208.6 178.675 208.6Z" fill="#F2BE19"/>
<path d="M174.596 213.893C174.185 213.893 173.739 213.838 173.335 213.667C172.786 213.434 172.457 213.015 172.347 212.433C172.251 211.905 172.272 211.329 172.409 210.678C172.471 210.39 172.567 210.061 172.786 209.766C173.245 209.149 173.993 209.128 174.486 209.115C174.61 209.108 174.726 209.108 174.815 209.094C175.782 208.978 176.529 208.731 177.146 208.32C177.797 207.881 178.339 207.298 178.709 206.626C178.887 206.297 179.299 206.181 179.628 206.352C179.957 206.523 180.087 206.928 179.929 207.264C179.717 207.689 179.525 208.196 179.34 208.806C179.312 208.909 178.86 210.664 179.538 212.145C179.621 212.33 179.621 212.535 179.538 212.721C179.456 212.906 179.299 213.036 179.107 213.091C178.318 213.317 177.269 213.598 176.186 213.749L176.022 213.769C175.892 213.79 175.754 213.811 175.624 213.824C175.329 213.845 174.973 213.893 174.596 213.893ZM177.825 209.505C177.036 210.013 176.125 210.314 174.973 210.451C174.822 210.472 174.671 210.472 174.52 210.479C174.322 210.486 173.945 210.493 173.883 210.575C173.821 210.664 173.78 210.829 173.746 210.959C173.643 211.432 173.629 211.829 173.691 212.179C173.718 212.309 173.746 212.35 173.869 212.398C174.308 212.583 174.966 212.508 175.439 212.446C175.562 212.433 175.686 212.412 175.816 212.398L175.987 212.371C176.591 212.289 177.235 212.152 178.01 211.946C177.756 211.055 177.763 210.164 177.825 209.505Z" fill="black"/>
<path d="M211.134 201.018C210.051 200.258 208.879 199.833 207.707 199.634C203.395 198.907 199.09 201.245 199.09 201.245C202.161 200.792 204.108 201.869 205.081 203.781C206.226 206.023 206.027 209.396 204.738 212.775C202.346 219.034 205.876 219.959 205.876 219.959C208.31 220.597 210.73 218.266 212.012 216.498C214.267 213.378 215.412 208.779 214.157 205.084C213.623 203.493 212.649 202.081 211.134 201.018Z" fill="#FFF5CC"/>
<path d="M206.733 220.748C206.391 220.748 206.048 220.707 205.712 220.618C205.582 220.583 204.43 220.248 203.738 218.883C202.956 217.355 203.08 215.216 204.108 212.522C205.362 209.245 205.499 206.092 204.478 204.09C203.559 202.294 201.736 201.54 199.2 201.917C198.87 201.965 198.555 201.773 198.445 201.457C198.336 201.142 198.48 200.799 198.768 200.635C198.953 200.532 203.333 198.194 207.823 198.955C209.194 199.188 210.442 199.689 211.525 200.45C213.081 201.54 214.192 203.02 214.809 204.844C216.05 208.484 215.145 213.324 212.574 216.882C212.094 217.54 211.093 218.781 209.763 219.685C208.728 220.398 207.714 220.748 206.733 220.748ZM206.062 219.295C207.316 219.617 209.393 218.945 211.464 216.093C212.547 214.599 213.349 212.748 213.733 210.87C214.144 208.868 214.069 206.942 213.506 205.303C212.979 203.761 212.046 202.506 210.737 201.588C209.818 200.943 208.756 200.518 207.59 200.319C205.733 200.004 203.847 200.306 202.36 200.717C203.834 201.142 204.978 202.068 205.691 203.473C206.308 204.679 206.583 206.16 206.507 207.881C206.439 209.492 206.048 211.274 205.383 213.015C204.293 215.867 204.54 217.423 204.93 218.225C205.342 219.055 206.007 219.274 206.062 219.295Z" fill="black"/>
<g filter="url(#filter0_d_4037_613)">
<rect x="86" y="85.5" width="82" height="82" rx="12" fill="white"/>
<path d="M113.909 103.273H141.727C142.378 103.273 143.003 103.532 143.463 103.992C143.923 104.452 144.182 105.077 144.182 105.727V143.364C144.182 144.015 143.923 144.639 143.463 145.099C143.003 145.56 142.378 145.818 141.727 145.818H113.909C112.824 145.818 111.784 145.387 111.016 144.62C110.249 143.853 109.818 142.812 109.818 141.727V107.364C109.818 106.279 110.249 105.238 111.016 104.471C111.784 103.704 112.824 103.273 113.909 103.273Z" fill="#FC6067"/>
<path d="M113.909 137.636H144.182V143.364C144.182 144.014 143.923 144.639 143.463 145.099C143.003 145.559 142.378 145.818 141.727 145.818H113.909C112.824 145.818 111.784 145.387 111.016 144.62C110.249 143.853 109.818 142.812 109.818 141.727C109.818 140.642 110.249 139.602 111.016 138.834C111.784 138.067 112.824 137.636 113.909 137.636Z" fill="#E7EAEF"/>
<path d="M123.727 150.727L120.455 147.454L117.182 150.727V141.727H123.727V150.727Z" fill="#FCB860"/>
<path d="M139.273 118C139.27 119.233 138.871 120.432 138.135 121.421C137.398 122.41 136.363 123.135 135.182 123.49V128.636H118.818V123.49C117.5 123.097 116.367 122.242 115.627 121.082C114.886 119.923 114.588 118.535 114.787 117.174C114.986 115.813 115.668 114.568 116.708 113.668C117.749 112.768 119.079 112.273 120.454 112.273C120.893 112.274 121.329 112.326 121.755 112.428C122.202 111.409 122.936 110.542 123.867 109.933C124.799 109.324 125.887 109 127 109C128.113 109 129.201 109.324 130.133 109.933C131.064 110.542 131.798 111.409 132.244 112.428C132.671 112.326 133.107 112.274 133.545 112.273C134.298 112.272 135.043 112.42 135.738 112.708C136.433 112.995 137.064 113.417 137.596 113.949C138.128 114.481 138.55 115.113 138.838 115.808C139.125 116.503 139.273 117.248 139.273 118Z" fill="white"/>
<path d="M135.182 128.636V130.273C135.18 130.706 135.008 131.122 134.701 131.428C134.394 131.735 133.979 131.908 133.545 131.909H120.454C120.021 131.908 119.605 131.735 119.299 131.428C118.992 131.122 118.819 130.706 118.818 130.273V128.636H135.182Z" fill="white"/>
<path d="M141.727 102.455H113.909C112.608 102.456 111.36 102.974 110.439 103.894C109.519 104.814 109.001 106.062 109 107.364V141.727C109.001 143.029 109.519 144.277 110.439 145.197C111.36 146.117 112.608 146.635 113.909 146.636H116.364V150.727C116.364 150.889 116.412 151.047 116.502 151.182C116.591 151.316 116.719 151.421 116.869 151.483C117.018 151.545 117.183 151.561 117.341 151.53C117.5 151.498 117.646 151.42 117.76 151.306L120.455 148.612L123.149 151.306C123.263 151.42 123.409 151.498 123.568 151.53C123.726 151.561 123.891 151.545 124.04 151.483C124.19 151.421 124.318 151.316 124.408 151.182C124.497 151.047 124.545 150.889 124.545 150.727V146.636H141.727C142.595 146.635 143.427 146.29 144.04 145.677C144.654 145.063 144.999 144.231 145 143.364V105.727C144.999 104.86 144.654 104.028 144.04 103.414C143.427 102.801 142.595 102.456 141.727 102.455ZM113.909 104.091H141.727C142.161 104.091 142.577 104.264 142.884 104.571C143.191 104.878 143.363 105.293 143.364 105.727V136.818H113.909C112.7 136.819 111.534 137.268 110.636 138.079V107.364C110.637 106.496 110.982 105.664 111.596 105.051C112.209 104.437 113.041 104.092 113.909 104.091ZM121.033 146.876C120.957 146.8 120.867 146.74 120.768 146.699C120.668 146.658 120.562 146.636 120.455 146.636C120.347 146.636 120.241 146.658 120.141 146.699C120.042 146.74 119.952 146.8 119.876 146.876L118 148.752V142.546H122.909V148.752L121.033 146.876ZM141.727 145H124.545V142.546H140.091C140.308 142.546 140.516 142.459 140.669 142.306C140.823 142.152 140.909 141.944 140.909 141.727C140.909 141.51 140.823 141.302 140.669 141.149C140.516 140.995 140.308 140.909 140.091 140.909H114.727C114.51 140.909 114.302 140.995 114.149 141.149C113.995 141.302 113.909 141.51 113.909 141.727C113.909 141.944 113.995 142.152 114.149 142.306C114.302 142.459 114.51 142.546 114.727 142.546H116.364V145H113.909C113.041 145 112.209 144.655 111.595 144.041C110.981 143.428 110.636 142.595 110.636 141.727C110.636 140.859 110.981 140.027 111.595 139.413C112.209 138.799 113.041 138.455 113.909 138.455H143.364V143.364C143.363 143.798 143.191 144.213 142.884 144.52C142.577 144.827 142.161 145 141.727 145ZM118 124.064V130.273C118.001 130.924 118.26 131.547 118.72 132.008C119.18 132.468 119.804 132.727 120.455 132.727H133.545C134.196 132.727 134.82 132.468 135.28 132.008C135.74 131.547 135.999 130.924 136 130.273V124.064C137.476 123.468 138.683 122.355 139.397 120.932C140.11 119.51 140.281 117.876 139.876 116.337C139.471 114.798 138.518 113.46 137.197 112.573C135.876 111.686 134.277 111.311 132.699 111.519C132.131 110.507 131.304 109.664 130.302 109.078C129.301 108.491 128.161 108.182 127 108.182C125.839 108.182 124.699 108.491 123.698 109.078C122.696 109.664 121.869 110.507 121.301 111.52C119.723 111.312 118.124 111.686 116.803 112.573C115.481 113.46 114.529 114.799 114.124 116.338C113.719 117.876 113.89 119.51 114.603 120.932C115.317 122.355 116.524 123.468 118 124.064ZM133.545 131.091H120.455C120.238 131.091 120.03 131.004 119.876 130.851C119.723 130.698 119.637 130.49 119.636 130.273V129.455H134.364V130.273C134.363 130.49 134.277 130.698 134.124 130.851C133.97 131.004 133.762 131.091 133.545 131.091ZM120.667 113.104C120.528 113.634 120.457 114.18 120.455 114.727C120.455 114.944 120.541 115.152 120.694 115.306C120.848 115.459 121.056 115.545 121.273 115.545C121.49 115.545 121.698 115.459 121.851 115.306C122.005 115.152 122.091 114.944 122.091 114.727C122.091 113.425 122.608 112.177 123.529 111.256C124.449 110.335 125.698 109.818 127 109.818C128.302 109.818 129.551 110.335 130.471 111.256C131.392 112.177 131.909 113.425 131.909 114.727C131.909 114.944 131.995 115.152 132.149 115.306C132.302 115.459 132.51 115.545 132.727 115.545C132.944 115.545 133.152 115.459 133.306 115.306C133.459 115.152 133.545 114.944 133.545 114.727C133.543 114.18 133.472 113.634 133.333 113.104C134.046 113.072 134.758 113.196 135.418 113.468C136.078 113.739 136.671 114.151 137.155 114.675C137.639 115.199 138.004 115.822 138.222 116.501C138.441 117.181 138.509 117.9 138.421 118.608C138.333 119.316 138.092 119.996 137.714 120.602C137.336 121.207 136.831 121.723 136.233 122.112C135.635 122.502 134.96 122.757 134.253 122.859C133.547 122.961 132.827 122.907 132.144 122.702C131.936 122.642 131.714 122.667 131.525 122.77C131.335 122.873 131.194 123.047 131.132 123.254C131.071 123.46 131.093 123.683 131.194 123.873C131.296 124.064 131.469 124.206 131.675 124.27C132.545 124.536 133.462 124.611 134.364 124.489V127.818H119.636V124.489C120.538 124.611 121.455 124.536 122.325 124.27C122.531 124.206 122.704 124.064 122.806 123.873C122.907 123.683 122.929 123.46 122.868 123.254C122.806 123.047 122.665 122.873 122.475 122.77C122.286 122.667 122.064 122.642 121.856 122.702C121.173 122.907 120.453 122.96 119.748 122.858C119.042 122.756 118.366 122.501 117.769 122.111C117.172 121.721 116.667 121.205 116.289 120.6C115.912 119.995 115.671 119.315 115.583 118.607C115.495 117.899 115.563 117.181 115.781 116.502C116 115.823 116.363 115.2 116.847 114.676C117.331 114.152 117.924 113.74 118.584 113.469C119.243 113.197 119.954 113.073 120.667 113.104Z" fill="black"/>
</g>
<defs>
<filter id="filter0_d_4037_613" x="61" y="60.5" width="132" height="132" filterUnits="userSpaceOnUse" color-interpolation-filters="sRGB">
<feFlood flood-opacity="0" result="BackgroundImageFix"/>
<feColorMatrix in="SourceAlpha" type="matrix" values="0 0 0 0 0 0 0 0 0 0 0 0 0 0 0 0 0 0 127 0" result="hardAlpha"/>
<feOffset/>
<feGaussianBlur stdDeviation="12.5"/>
<feComposite in2="hardAlpha" operator="out"/>
<feColorMatrix type="matrix" values="0 0 0 0 0 0 0 0 0 0 0 0 0 0 0 0 0 0 0.1 0"/>
<feBlend mode="normal" in2="BackgroundImageFix" result="effect1_dropShadow_4037_613"/>
<feBlend mode="normal" in="SourceGraphic" in2="effect1_dropShadow_4037_613" result="shape"/>
</filter>
</defs>
</svg>
