<svg width="121" height="136" viewBox="0 0 121 136" fill="none" xmlns="http://www.w3.org/2000/svg">
<path opacity="0.05" d="M68.9102 25.0604C66.7902 24.4004 65.4002 22.5104 65.4002 20.2804V11.9004H59.4702V20.2804C59.4702 22.5104 60.8602 24.3904 62.9802 25.0604C65.4202 25.8204 67.2102 27.5704 67.2102 30.8404V74.4204H73.1402V30.8404C73.1402 27.5704 71.3502 25.8204 68.9102 25.0604Z" fill="black"/>
<path fill-rule="evenodd" clip-rule="evenodd" d="M47.6402 1.70996H68.2402C68.9602 1.70996 69.5402 2.28996 69.5402 3.00996V9.01996C69.5402 9.72996 68.9602 10.32 68.2402 10.32H47.6402C46.9202 10.32 46.3402 9.72996 46.3402 9.01996V3.00996C46.3402 2.28996 46.9202 1.70996 47.6402 1.70996Z" fill="#8E8E8E"/>
<path opacity="0.05" fill-rule="evenodd" clip-rule="evenodd" d="M59.2302 1.70996H68.9302C69.2702 1.70996 69.5402 2.28996 69.5402 3.00996V9.01996C69.5402 9.72996 69.2702 10.32 68.9302 10.32H59.2302C58.8902 10.32 58.6202 9.72996 58.6202 9.01996V3.00996C58.6202 2.28996 58.8902 1.70996 59.2302 1.70996Z" fill="black"/>
<path fill-rule="evenodd" clip-rule="evenodd" d="M50.0602 33.8901H65.8302V66.1501H50.0602V33.8901Z" fill="#F6D86D"/>
<path fill-rule="evenodd" clip-rule="evenodd" d="M89.9802 31.8604C82.1402 36.0004 98.8802 53.1703 100.72 52.2003C102.55 51.2404 97.8302 27.7204 89.9802 31.8604Z" fill="#4CAF50"/>
<path fill-rule="evenodd" clip-rule="evenodd" d="M113.62 37.8501C118.55 45.2301 95.6402 52.3501 94.5002 50.6201C93.3602 48.8901 108.7 30.4701 113.62 37.8501Z" fill="#4CAF50"/>
<path fill-rule="evenodd" clip-rule="evenodd" d="M103.48 28.2005C94.8902 26.0305 95.8202 49.9905 97.8302 50.5005C99.8302 51.0105 112.08 30.3805 103.48 28.2005Z" fill="#4CAF50"/>
<path fill-rule="evenodd" clip-rule="evenodd" d="M100.03 41.8403C93.9703 40.3103 87.0303 47.0603 84.5303 56.9303C82.0303 66.8003 87.6903 76.7503 90.9803 77.5803C94.2703 78.4203 103.98 72.3603 106.48 62.4903C108.99 52.6203 106.09 43.3803 100.03 41.8403Z" fill="#EE7934"/>
<path opacity="0.05" d="M100.03 41.8402C99.3603 41.6702 98.6703 41.6102 97.9803 41.6302C101.35 45.7402 102.51 53.2502 100.51 61.1402C98.6803 68.3602 93.3103 73.7002 88.8903 76.1502C89.6203 76.9102 90.3403 77.4102 90.9703 77.5702C94.2603 78.4102 103.97 72.3502 106.47 62.4802C108.98 52.6102 106.08 43.3702 100.02 41.8302L100.03 41.8402Z" fill="black"/>
<path fill-rule="evenodd" clip-rule="evenodd" d="M71.7702 40.6001C63.0202 40.6001 55.9302 47.8301 55.9302 56.7401C55.9302 65.6501 63.0202 72.8701 71.7702 72.8701C80.5202 72.8701 87.6002 65.6401 87.6002 56.7401C87.6002 47.8401 80.5102 40.6001 71.7702 40.6001Z" fill="#E02F2F"/>
<path opacity="0.05" fill-rule="evenodd" clip-rule="evenodd" d="M75.7202 41.1104C78.7902 44.4304 80.6802 48.9004 80.6802 53.8204C80.6802 62.7004 74.5402 70.1203 66.3602 71.9104C68.0502 72.5403 69.8702 72.8804 71.7702 72.8804C80.5102 72.8804 87.6002 65.6504 87.6002 56.7504C87.6002 49.2204 82.5502 42.9004 75.7202 41.1104Z" fill="black"/>
<path fill-rule="evenodd" clip-rule="evenodd" d="M21.2502 36.1104H42.7402L50.0602 47.5804V91.4904H13.9502V47.5804L21.2602 36.1104H21.2502Z" fill="#DAEBF8"/>
<path opacity="0.05" fill-rule="evenodd" clip-rule="evenodd" d="M42.7402 36.1104L35.4302 47.5804V91.4904H50.0502V47.5804L42.7302 36.1104H42.7402Z" fill="black"/>
<path fill-rule="evenodd" clip-rule="evenodd" d="M21.2502 29.5801H42.7402V36.1001H21.2502V29.5801Z" fill="#DAEBF8"/>
<path fill-rule="evenodd" clip-rule="evenodd" d="M53.7302 80.5401H78.5502C83.3502 80.5401 87.2802 76.6101 87.2802 71.8201C87.2802 67.0301 83.3502 63.0901 78.5502 63.0901H78.5202C77.5702 60.0201 74.7002 57.7701 71.3102 57.7701C69.3502 57.7701 67.5702 58.5201 66.2202 59.7501C64.9702 56.2801 61.6402 53.8101 57.7402 53.8101C52.7602 53.8101 48.7202 57.8501 48.7202 62.8301C48.7202 63.7601 48.8602 64.6501 49.1202 65.5001C45.1602 65.7001 41.9902 69.0001 41.9902 73.0101C41.9902 77.0201 45.3702 80.5401 49.5102 80.5401H53.7402H53.7302Z" fill="#70BF73"/>
<path d="M60.7603 61.6803C62.1003 60.4603 63.8903 59.7003 65.8503 59.7003C65.9703 59.7003 66.0803 59.7003 66.2003 59.7103C64.9403 56.2603 61.6203 53.8003 57.7303 53.8003C55.6203 53.8003 53.6903 54.5203 52.1503 55.7303C52.1903 55.7303 52.2303 55.7303 52.2703 55.7303C56.1703 55.7303 59.5003 58.2103 60.7503 61.6703L60.7603 61.6803Z" fill="#70BF73"/>
<path opacity="0.05" d="M87.2702 71.8205C87.2702 67.0205 83.3402 63.0905 78.5402 63.0905H78.5102C77.5602 60.0205 74.6902 57.7705 71.3002 57.7705C69.3502 57.7705 67.5902 58.5105 66.2502 59.7205C69.4602 59.8905 72.1502 62.0705 73.0602 65.0205H73.0902C77.8902 65.0205 81.8202 68.9505 81.8202 73.7505C81.8202 76.4905 80.5402 78.9405 78.5502 80.5405C83.3502 80.5405 87.2702 76.6105 87.2702 71.8205Z" fill="black"/>
<path d="M66.2502 59.7202C66.2502 59.7202 66.2202 59.7202 66.2002 59.7202C66.2002 59.7302 66.2002 59.7402 66.2102 59.7502C66.2202 59.7402 66.2302 59.7302 66.2502 59.7202Z" fill="#70BF73"/>
<path fill-rule="evenodd" clip-rule="evenodd" d="M9.08022 72.1802H111.98C115.74 72.1802 118.83 75.2602 118.83 79.0302C118.83 82.8002 115.74 85.8802 111.98 85.8802H9.08022C5.31022 85.8802 2.23022 82.8002 2.23022 79.0302C2.23022 75.2602 5.31022 72.1802 9.08022 72.1802Z" fill="#E65959"/>
<path opacity="0.05" d="M111.98 72.1802H94.2002C97.9602 72.1802 101.05 75.2602 101.05 79.0302C101.05 82.8002 97.9602 85.8802 94.2002 85.8802H111.98C115.74 85.8802 118.83 82.8002 118.83 79.0302C118.83 75.2602 115.74 72.1802 111.98 72.1802Z" fill="black"/>
<path fill-rule="evenodd" clip-rule="evenodd" d="M24.5102 134.35H96.5502C100.04 134.35 102.41 131.65 102.88 128.42L109.01 86.6704H12.0402L18.1702 128.42C18.6502 131.66 21.0202 134.35 24.5102 134.35Z" fill="#EC8282"/>
<path fill-rule="evenodd" clip-rule="evenodd" d="M21.2502 36.1104L13.9402 47.5804H35.4302L42.7402 36.1104H21.2502Z" fill="#DAEBF8"/>
<path opacity="0.05" fill-rule="evenodd" clip-rule="evenodd" d="M97.5002 134.28C100.46 133.83 102.45 131.34 102.88 128.41L109.01 86.6602H12.0402L12.5702 90.2402H104.34L98.2102 131.99C98.1002 132.79 97.8602 133.57 97.5202 134.27L97.5002 134.28Z" fill="black"/>
<path fill-rule="evenodd" clip-rule="evenodd" d="M12.6402 124.15L35.0102 85.4C36.0402 83.62 35.4302 81.32 33.6402 80.3C31.8702 79.27 29.5702 79.89 28.5402 81.67L6.18015 120.41C5.15015 122.19 5.77015 124.49 7.55015 125.51C9.33015 126.54 11.6202 125.92 12.6502 124.14L12.6402 124.15Z" fill="#F4CE49"/>
<path fill-rule="evenodd" clip-rule="evenodd" d="M108.41 124.15L86.0403 85.4C85.0103 83.62 85.6303 81.32 87.4103 80.3C89.1903 79.27 91.4903 79.89 92.5103 81.67L114.88 120.42C115.91 122.2 115.29 124.5 113.51 125.52C111.73 126.55 109.43 125.93 108.41 124.15Z" fill="#F4CE49"/>
<path d="M104.36 127.1L104.3 127.54C103.65 131.95 100.32 135.01 96.2002 135.01H24.8702C20.7502 135.01 17.4202 131.95 16.7702 127.56L16.7002 127.13C16.5502 126.12 17.2402 125.18 18.2502 125.03C19.2602 124.88 20.2002 125.57 20.3502 126.58L20.4202 127.02C20.7402 129.17 22.2302 131.33 24.8702 131.33H96.2002C98.8302 131.33 100.33 129.17 100.65 127.03L100.71 126.61C100.85 125.6 101.78 124.89 102.79 125.03C103.8 125.17 104.51 126.1 104.37 127.11L104.36 127.1ZM105.52 93.7902L106.4 87.7902H98.2502L115.94 118.44C116.68 119.72 116.87 121.21 116.49 122.64C116.11 124.07 115.19 125.27 113.91 126.01C113.06 126.5 112.12 126.75 111.16 126.75C110.68 126.75 110.19 126.69 109.71 126.56C108.28 126.18 107.08 125.26 106.34 123.98L92.6402 100.25V104.81C92.6402 105.83 91.8102 106.66 90.7902 106.66C89.7702 106.66 88.9402 105.83 88.9402 104.81V93.8602L85.4402 87.8102H35.6002L32.1002 93.8602V104.81C32.1002 105.83 31.2702 106.66 30.2502 106.66C29.2302 106.66 28.4002 105.83 28.4002 104.81V100.25L14.7002 123.98C13.9602 125.26 12.7702 126.18 11.3302 126.56C10.8502 126.69 10.3602 126.75 9.88018 126.75C8.92018 126.75 7.97018 126.5 7.12018 126.01C5.84018 125.27 4.93018 124.08 4.54018 122.64C4.16018 121.21 4.35018 119.71 5.09018 118.44L22.7802 87.8002H14.6202L15.5002 93.8002C15.6502 94.8102 14.9502 95.7502 13.9402 95.8902C13.8502 95.9002 13.7602 95.9102 13.6702 95.9102C12.7702 95.9102 11.9802 95.2502 11.8502 94.3302L10.8902 87.8002H9.55018C4.80018 87.8002 0.930176 83.9302 0.930176 79.1702C0.930176 74.4102 4.80018 70.5402 9.55018 70.5402H12.5302V47.2402C12.5302 46.8902 12.6302 46.5402 12.8202 46.2502L19.7702 35.3502V29.4302C19.7702 28.4102 20.6002 27.5802 21.6202 27.5802H41.1702C41.6402 24.6602 43.5002 22.5702 46.5202 21.6202C47.8502 21.2002 48.7102 20.0402 48.7102 18.6502V12.2002H47.7502C46.0202 12.2002 44.6202 10.7902 44.6202 9.07023V3.12023C44.6202 1.39023 46.0302 -0.00976562 47.7502 -0.00976562H68.1402C69.8702 -0.00976562 71.2702 1.40023 71.2702 3.12023V9.06023C71.2702 10.7902 69.8602 12.1902 68.1402 12.1902H67.1702V18.6402C67.1702 20.0302 68.0302 21.1902 69.3602 21.6102C72.8902 22.7302 74.8402 25.3902 74.8402 29.1102V37.2002C75.6602 36.3702 76.5602 35.6202 77.5502 34.9602C78.4002 34.3902 79.5402 34.6102 80.1102 35.4602C80.6802 36.3102 80.4602 37.4502 79.6102 38.0202C78.9202 38.4902 78.2802 39.0002 77.6802 39.5702C81.3602 40.9502 84.4602 43.5502 86.5102 46.8802C87.3302 45.6702 88.2202 44.6002 89.1502 43.6702C87.1002 40.6502 85.2102 36.8402 85.9102 33.7202C86.2702 32.1202 87.2702 30.8402 88.8002 30.0302C90.0602 29.3602 92.9002 28.4502 95.8702 31.3602C96.5202 29.6402 97.4402 28.1502 98.7002 27.1802C100.08 26.1302 101.73 25.8102 103.49 26.2502C105.24 26.6902 106.55 27.7702 107.26 29.3502C107.91 30.8002 108 32.5502 107.76 34.3702C111.76 33.2302 113.82 35.3802 114.61 36.5702C115.57 38.0102 115.84 39.6102 115.4 41.1902C114.53 44.2602 111.06 46.7102 107.82 48.3902C109.05 52.5202 109.04 57.5102 107.79 62.4602C106.96 65.7302 105.46 68.4202 103.89 70.5302H111.44C116.2 70.5302 120.07 74.4002 120.07 79.1602C120.07 83.9202 116.2 87.7902 111.44 87.7902H110.1L109.14 94.3202C109 95.2402 108.22 95.9002 107.32 95.9002C107.23 95.9002 107.14 95.9002 107.05 95.8802C106.04 95.7302 105.34 94.7902 105.49 93.7802L105.52 93.7902ZM104.98 42.8902C105.51 43.5102 106 44.2102 106.43 44.9802C109.48 43.3602 111.48 41.6302 111.88 40.2002C111.98 39.8402 112.04 39.3302 111.57 38.6402C111.25 38.1702 110.31 36.7702 106.65 38.9002C106.14 40.3502 105.54 41.7202 104.97 42.8902H104.98ZM98.0702 39.5202C98.7502 39.5202 99.4302 39.6202 100.1 39.7902C100.77 39.9602 101.41 40.2002 102.01 40.5102C103.95 36.2802 104.69 32.6202 103.92 30.8902C103.67 30.3402 103.28 30.0302 102.61 29.8602C101.94 29.6902 101.45 29.7702 100.97 30.1402C99.4702 31.2902 98.3802 34.8702 98.0602 39.5202H98.0702ZM92.0702 41.3602C92.8102 40.8902 93.5702 40.5102 94.3302 40.2202C94.3902 38.9102 94.5202 37.4102 94.7602 35.8902C92.5602 32.2702 91.0702 33.0502 90.5602 33.3202C89.8202 33.7102 89.6302 34.1802 89.5502 34.5502C89.2202 36.0002 90.1602 38.4902 92.0702 41.3702V41.3602ZM86.8902 65.1502C88.0002 66.6902 88.7002 68.5402 88.8302 70.5502H99.0702C100.96 68.6102 103.21 65.6002 104.24 61.5702C105.35 57.1702 105.36 52.8002 104.25 49.2602C103.24 46.0302 101.45 43.9402 99.1902 43.3702C95.6402 42.4702 91.2702 45.5802 88.3802 50.9702C88.9002 52.6602 89.1902 54.4602 89.1902 56.3202C89.1902 59.0102 88.6102 61.6002 87.4702 64.0102C87.3002 64.3802 87.1002 64.7602 86.8902 65.1502ZM50.7502 66.0502C50.4202 66.5202 49.9002 66.8102 49.3302 66.8402C47.0102 66.9502 45.0902 68.4702 44.3502 70.5402H85.1302C84.7802 67.1302 81.8802 64.4602 78.3802 64.4602H78.3402C77.5302 64.4602 76.8102 63.9302 76.5802 63.1602C75.8502 60.7902 73.6902 59.2002 71.2102 59.2002C69.8002 59.2002 68.4502 59.7202 67.4202 60.6702C66.9702 61.0902 66.3302 61.2502 65.7302 61.1002C65.1302 60.9502 64.6502 60.5202 64.4302 59.9402C63.4102 57.1502 60.7302 55.2702 57.7602 55.2702C53.8502 55.2702 50.6702 58.4502 50.6702 62.3602C50.6702 63.0702 50.7802 63.7802 50.9902 64.4602C51.1602 65.0102 51.0702 65.6002 50.7402 66.0702L50.7502 66.0502ZM54.6502 52.0302C55.9102 46.8202 59.3902 42.6002 63.9402 40.3202V35.5302H52.0202V53.2402C52.8302 52.7202 53.7202 52.3102 54.6602 52.0302H54.6502ZM65.3302 46.7302C65.7802 45.8102 66.8802 45.4402 67.8002 45.8802C68.4702 46.2102 69.1702 46.4502 69.8902 46.6002C70.1802 45.0702 70.6702 43.5902 71.3402 42.1902C65.5502 42.3302 60.5002 46.1502 58.6102 51.6102C62.0002 51.8802 65.0602 53.7502 66.8602 56.5702C68.1802 55.8702 69.6702 55.5002 71.2002 55.5002C74.8602 55.5002 78.1002 57.6002 79.6202 60.8402C81.2602 61.0402 82.7902 61.6102 84.1102 62.4802C84.1102 62.4702 84.1202 62.4602 84.1302 62.4502C85.0402 60.5202 85.5002 58.4602 85.5002 56.3202C85.5002 49.8002 81.1502 44.3002 75.2602 42.6702C75.2402 42.7102 75.2102 42.7502 75.1802 42.7902C74.4902 43.9902 73.9802 45.2702 73.6602 46.6002C74.3802 46.4502 75.0902 46.2102 75.7602 45.8802C76.6802 45.4302 77.7802 45.8102 78.2302 46.7302C78.6802 47.6502 78.3002 48.7502 77.3802 49.2002C75.6302 50.0602 73.7402 50.4902 71.7702 50.4902C69.8002 50.4902 67.9202 50.0502 66.1702 49.2002C65.2502 48.7502 64.8802 47.6502 65.3202 46.7302H65.3302ZM50.5902 8.50023H67.6102V3.68023H48.3402V8.50023H50.5902ZM44.7802 35.3502L48.3202 40.9102V33.6902C48.3202 32.6702 49.1502 31.8402 50.1702 31.8402H65.7902C66.8102 31.8402 67.6402 32.6702 67.6402 33.6902V38.9702C68.7902 38.6902 69.9702 38.5302 71.1802 38.5002V29.1102C71.1802 26.9902 70.2902 25.7702 68.2902 25.1402C65.4402 24.2502 63.5202 21.6402 63.5202 18.6502V12.2002H52.4502V18.6502C52.4502 21.6402 50.5302 24.2502 47.6802 25.1402C45.7102 25.7602 44.7902 27.0302 44.7902 29.1102V35.3402L44.7802 35.3502ZM37.5402 47.7802V70.5402H40.5102C41.2102 67.1602 43.7402 64.4402 47.0502 63.4902C47.0102 63.1102 46.9902 62.7302 46.9902 62.3402C46.9902 60.4602 47.4702 58.7002 48.3202 57.1602V47.7702L42.9302 39.3102L37.5402 47.7702V47.7802ZM23.5002 34.0402H41.0802V31.2702H23.5002V34.0402ZM17.7802 45.4002H34.6802L39.5602 37.7402H22.6602L17.7802 45.4002ZM16.2602 70.5402H33.8402V49.0902H16.2602V70.5402ZM33.0002 81.2502C32.7102 81.0802 32.3902 81.0002 32.0802 81.0002C31.4402 81.0002 30.8202 81.3302 30.4802 81.9202L8.33018 120.29C8.08018 120.71 8.02018 121.21 8.15018 121.69C8.28018 122.17 8.58018 122.57 9.01018 122.81C9.44018 123.06 9.93018 123.12 10.4102 122.99C10.8902 122.86 11.2902 122.56 11.5302 122.13L33.6802 83.7702C34.1902 82.8902 33.8802 81.7602 33.0002 81.2502ZM90.5902 81.9202C90.3402 81.4902 89.9502 81.1902 89.4702 81.0602C89.3102 81.0202 89.1502 81.0002 88.9802 81.0002C88.6602 81.0002 88.3502 81.0802 88.0702 81.2502C87.6402 81.5002 87.3402 81.8902 87.2102 82.3702C87.0802 82.8502 87.1502 83.3502 87.3902 83.7702L109.54 122.13C109.78 122.55 110.18 122.86 110.66 122.99C111.14 123.12 111.64 123.05 112.06 122.81C112.49 122.56 112.79 122.16 112.92 121.69C113.05 121.21 112.98 120.71 112.74 120.29L90.5902 81.9202ZM108.54 84.1002H111.47C114.19 84.1002 116.4 81.8902 116.4 79.1702C116.4 76.4502 114.19 74.2402 111.47 74.2402H9.59018C6.87018 74.2402 4.66018 76.4502 4.66018 79.1702C4.66018 81.8902 6.87018 84.1002 9.59018 84.1002H24.9502L27.2702 80.0702C28.7902 77.4302 32.1902 76.5102 34.8402 78.0402C37.0002 79.2902 38.0002 81.7802 37.4702 84.1002H83.6002C83.4002 83.2202 83.4102 82.3002 83.6502 81.4102C84.0302 79.9802 84.9502 78.7802 86.2302 78.0502C87.5002 77.3102 89.0002 77.1202 90.4302 77.5002C91.8602 77.8802 93.0602 78.8002 93.8002 80.0802L96.1202 84.1002H108.55H108.54ZM38.9202 106.65C39.9402 106.65 40.7702 105.82 40.7702 104.8V93.4502C40.7702 92.4302 39.9402 91.6002 38.9202 91.6002C37.9002 91.6002 37.0702 92.4302 37.0702 93.4502V104.8C37.0702 105.82 37.9002 106.65 38.9202 106.65ZM47.5602 106.65C48.5802 106.65 49.4102 105.82 49.4102 104.8V93.4502C49.4102 92.4302 48.5802 91.6002 47.5602 91.6002C46.5402 91.6002 45.7102 92.4302 45.7102 93.4502V104.8C45.7102 105.82 46.5402 106.65 47.5602 106.65ZM56.2102 106.65C57.2302 106.65 58.0602 105.82 58.0602 104.8V93.4502C58.0602 92.4302 57.2302 91.6002 56.2102 91.6002C55.1902 91.6002 54.3602 92.4302 54.3602 93.4502V104.8C54.3602 105.82 55.1902 106.65 56.2102 106.65ZM64.8502 106.65C65.8702 106.65 66.7002 105.82 66.7002 104.8V93.4502C66.7002 92.4302 65.8702 91.6002 64.8502 91.6002C63.8302 91.6002 63.0002 92.4302 63.0002 93.4502V104.8C63.0002 105.82 63.8302 106.65 64.8502 106.65ZM73.5002 106.65C74.5202 106.65 75.3502 105.82 75.3502 104.8V93.4502C75.3502 92.4302 74.5202 91.6002 73.5002 91.6002C72.4802 91.6002 71.6502 92.4302 71.6502 93.4502V104.8C71.6502 105.82 72.4802 106.65 73.5002 106.65ZM82.1502 106.65C83.1702 106.65 84.0002 105.82 84.0002 104.8V93.4502C84.0002 92.4302 83.1702 91.6002 82.1502 91.6002C81.1302 91.6002 80.3002 92.4302 80.3002 93.4502V104.8C80.3002 105.82 81.1302 106.65 82.1502 106.65ZM32.1202 124.39V113.04C32.1202 112.02 31.2902 111.19 30.2702 111.19C29.2502 111.19 28.4202 112.02 28.4202 113.04V124.39C28.4202 125.41 29.2502 126.24 30.2702 126.24C31.2902 126.24 32.1202 125.41 32.1202 124.39ZM37.0702 124.39C37.0702 125.41 37.9002 126.24 38.9202 126.24C39.9402 126.24 40.7702 125.41 40.7702 124.39V113.04C40.7702 112.02 39.9402 111.19 38.9202 111.19C37.9002 111.19 37.0702 112.02 37.0702 113.04V124.39ZM45.7202 124.39C45.7202 125.41 46.5502 126.24 47.5702 126.24C48.5902 126.24 49.4202 125.41 49.4202 124.39V113.04C49.4202 112.02 48.5902 111.19 47.5702 111.19C46.5502 111.19 45.7202 112.02 45.7202 113.04V124.39ZM54.3702 124.39C54.3702 125.41 55.2002 126.24 56.2202 126.24C57.2402 126.24 58.0702 125.41 58.0702 124.39V113.04C58.0702 112.02 57.2402 111.19 56.2202 111.19C55.2002 111.19 54.3702 112.02 54.3702 113.04V124.39ZM63.0102 124.39C63.0102 125.41 63.8402 126.24 64.8602 126.24C65.8802 126.24 66.7102 125.41 66.7102 124.39V113.04C66.7102 112.02 65.8802 111.19 64.8602 111.19C63.8402 111.19 63.0102 112.02 63.0102 113.04V124.39ZM71.6602 124.39C71.6602 125.41 72.4902 126.24 73.5102 126.24C74.5302 126.24 75.3602 125.41 75.3602 124.39V113.04C75.3602 112.02 74.5302 111.19 73.5102 111.19C72.4902 111.19 71.6602 112.02 71.6602 113.04V124.39ZM80.3002 124.39C80.3002 125.41 81.1302 126.24 82.1502 126.24C83.1702 126.24 84.0002 125.41 84.0002 124.39V113.04C84.0002 112.02 83.1702 111.19 82.1502 111.19C81.1302 111.19 80.3002 112.02 80.3002 113.04V124.39ZM92.6402 124.39V113.04C92.6402 112.02 91.8102 111.19 90.7902 111.19C89.7702 111.19 88.9402 112.02 88.9402 113.04V124.39C88.9402 125.41 89.7702 126.24 90.7902 126.24C91.8102 126.24 92.6402 125.41 92.6402 124.39Z" fill="black"/>
</svg>
