<svg width="335" height="249" viewBox="0 0 335 249" fill="none" xmlns="http://www.w3.org/2000/svg">
<path d="M200.052 159.087H208.19V178.414C208.19 179.763 207.654 181.057 206.7 182.011C205.746 182.965 204.453 183.501 203.104 183.501H200.052V159.087Z" fill="#961B20"/>
<path d="M122.742 65.5005H203.104C204.453 65.5005 205.746 66.0364 206.7 66.9902C207.654 67.9441 208.19 69.2377 208.19 70.5867V162.138C208.19 163.487 207.654 164.781 206.7 165.735C205.746 166.689 204.453 167.225 203.104 167.225H122.742V65.5005Z" fill="#E82F3E"/>
<path d="M195.983 108.225C195.983 104.056 194.384 100.047 191.515 97.0225C188.646 93.9985 184.726 92.1905 180.563 91.9713C179.349 88.9583 177.262 86.3773 174.569 84.5605C171.876 82.7438 168.701 81.7743 165.453 81.7769C162.205 81.7794 159.031 82.7539 156.342 84.575C153.652 86.396 151.568 88.9803 150.359 91.9952C149.973 91.9675 149.584 91.9487 149.189 91.9487C145.228 91.9492 141.402 93.3944 138.43 96.0135C135.457 98.6327 133.542 102.246 133.043 106.176C132.544 110.106 133.495 114.083 135.718 117.362C137.942 120.641 141.285 122.997 145.12 123.988V138.742H185.811V123.313C188.816 122.097 191.39 120.011 193.202 117.323C195.014 114.635 195.983 111.467 195.983 108.225Z" fill="#EAEAE8"/>
<path d="M122.742 167.225L110.535 175.363V73.6384C110.535 71.4801 111.392 69.4102 112.918 67.884C114.444 66.3579 116.514 65.5005 118.673 65.5005H122.742V167.225Z" fill="#961B20"/>
<path d="M177.674 126.023C177.503 126.023 177.332 126.001 177.165 125.958C173.927 125.127 170.981 123.42 168.648 121.025H162.283C159.951 123.42 157.004 125.127 153.766 125.958C153.243 126.093 152.688 126.014 152.224 125.74C151.759 125.465 151.422 125.017 151.288 124.494C151.153 123.972 151.232 123.417 151.507 122.952C151.781 122.488 152.229 122.151 152.752 122.016C155.511 121.307 157.992 119.782 159.872 117.642C160.063 117.426 160.298 117.253 160.561 117.134C160.824 117.015 161.11 116.954 161.398 116.954H169.536C169.825 116.954 170.11 117.015 170.373 117.134C170.636 117.253 170.871 117.426 171.062 117.642C172.942 119.782 175.424 121.307 178.183 122.016C178.663 122.139 179.082 122.433 179.36 122.843C179.639 123.253 179.759 123.75 179.697 124.242C179.635 124.734 179.395 125.186 179.023 125.514C178.651 125.841 178.173 126.022 177.677 126.022L177.674 126.023Z" fill="#CBCBCB"/>
<path d="M155.293 140.776C154.754 140.776 154.236 140.562 153.855 140.18C153.473 139.799 153.259 139.281 153.259 138.742V130.604C153.259 130.064 153.473 129.547 153.855 129.165C154.236 128.784 154.754 128.569 155.293 128.569C155.833 128.569 156.35 128.784 156.732 129.165C157.113 129.547 157.328 130.064 157.328 130.604V138.742C157.328 139.281 157.113 139.799 156.732 140.18C156.35 140.562 155.833 140.776 155.293 140.776Z" fill="#CBCBCB"/>
<path d="M175.638 140.776C175.099 140.776 174.581 140.562 174.2 140.18C173.818 139.799 173.604 139.281 173.604 138.742V130.604C173.604 130.064 173.818 129.547 174.2 129.165C174.581 128.784 175.099 128.569 175.638 128.569C176.178 128.569 176.695 128.784 177.077 129.165C177.458 129.547 177.673 130.064 177.673 130.604V138.742C177.673 139.281 177.458 139.799 177.077 140.18C176.695 140.562 176.178 140.776 175.638 140.776Z" fill="#CBCBCB"/>
<path d="M165.466 140.776C164.926 140.776 164.409 140.562 164.027 140.18C163.646 139.799 163.431 139.281 163.431 138.742V130.604C163.431 130.064 163.646 129.547 164.027 129.165C164.409 128.784 164.926 128.569 165.466 128.569C166.005 128.569 166.523 128.784 166.904 129.165C167.286 129.547 167.5 130.064 167.5 130.604V138.742C167.5 139.281 167.286 139.799 166.904 140.18C166.523 140.562 166.005 140.776 165.466 140.776Z" fill="#CBCBCB"/>
<path d="M145.121 138.742H185.811V146.88H145.121V138.742Z" fill="#CBCBCB"/>
<path d="M118.673 167.225H200.052V183.5H118.673C116.514 183.5 114.444 182.643 112.918 181.117C111.392 179.591 110.535 177.521 110.535 175.363C110.535 173.204 111.392 171.134 112.918 169.608C114.444 168.082 116.514 167.225 118.673 167.225Z" fill="#EAEAE8"/>
<path d="M208.19 81.7764H220.397L216.328 87.8798L220.397 93.9833H208.19V81.7764Z" fill="#02A437"/>
<path d="M208.19 102.121H224.466L220.397 108.225L224.466 114.328H208.19V102.121Z" fill="#009CF7"/>
<path d="M157.328 159.087H151.224C150.685 159.087 150.167 158.872 149.786 158.491C149.404 158.109 149.19 157.592 149.19 157.052C149.19 156.512 149.404 155.995 149.786 155.613C150.167 155.232 150.685 155.018 151.224 155.018H157.328C157.867 155.018 158.385 155.232 158.766 155.613C159.148 155.995 159.362 156.512 159.362 157.052C159.362 157.592 159.148 158.109 158.766 158.491C158.385 158.872 157.867 159.087 157.328 159.087Z" fill="#961B20"/>
<path d="M181.742 159.087H165.466C164.926 159.087 164.409 158.872 164.027 158.491C163.646 158.109 163.431 157.592 163.431 157.052C163.431 156.512 163.646 155.995 164.027 155.613C164.409 155.232 164.926 155.018 165.466 155.018H181.742C182.281 155.018 182.799 155.232 183.18 155.613C183.562 155.995 183.776 156.512 183.776 157.052C183.776 157.592 183.562 158.109 183.18 158.491C182.799 158.872 182.281 159.087 181.742 159.087Z" fill="#961B20"/>
<path d="M208.19 93.9832L179.707 65.5005H203.104C204.453 65.5005 205.746 66.0364 206.7 66.9902C207.654 67.9441 208.19 69.2377 208.19 70.5867V93.9832Z" fill="#FBB540"/>
<path d="M193.949 85.8451C197.319 85.8451 200.052 83.1125 200.052 79.7416C200.052 76.3708 197.319 73.6382 193.949 73.6382C190.578 73.6382 187.845 76.3708 187.845 79.7416C187.845 83.1125 190.578 85.8451 193.949 85.8451Z" fill="#EA9D2D"/>
<path d="M130.88 177.397H118.673C118.133 177.397 117.616 177.183 117.234 176.801C116.853 176.42 116.638 175.902 116.638 175.363C116.638 174.823 116.853 174.306 117.234 173.924C117.616 173.542 118.133 173.328 118.673 173.328H130.88C131.419 173.328 131.937 173.542 132.318 173.924C132.7 174.306 132.914 174.823 132.914 175.363C132.914 175.902 132.7 176.42 132.318 176.801C131.937 177.183 131.419 177.397 130.88 177.397Z" fill="#CBCBCB"/>
<path d="M141.052 177.397H139.018C138.478 177.397 137.96 177.183 137.579 176.801C137.197 176.42 136.983 175.902 136.983 175.363C136.983 174.823 137.197 174.306 137.579 173.924C137.96 173.542 138.478 173.328 139.018 173.328H141.052C141.592 173.328 142.109 173.542 142.491 173.924C142.872 174.306 143.086 174.823 143.086 175.363C143.086 175.902 142.872 176.42 142.491 176.801C142.109 177.183 141.592 177.397 141.052 177.397Z" fill="#CBCBCB"/>
<path d="M200.052 177.397H149.19C148.65 177.397 148.133 177.183 147.751 176.801C147.37 176.42 147.155 175.902 147.155 175.363C147.155 174.823 147.37 174.306 147.751 173.924C148.133 173.542 148.65 173.328 149.19 173.328H200.052V177.397Z" fill="#CBCBCB"/>
<path d="M178.18 122.017C175.421 121.308 172.939 119.783 171.059 117.643C170.868 117.427 170.633 117.254 170.37 117.135C170.107 117.016 169.822 116.955 169.533 116.955H161.397C161.108 116.955 160.823 117.016 160.56 117.135C160.297 117.254 160.062 117.427 159.871 117.643C157.991 119.783 155.509 121.308 152.75 122.017C152.228 122.152 151.78 122.488 151.505 122.953C151.231 123.418 151.152 123.973 151.286 124.495C151.421 125.018 151.758 125.466 152.222 125.741C152.687 126.015 153.242 126.094 153.764 125.959C157.002 125.128 159.949 123.421 162.282 121.026H168.647C170.979 123.421 173.926 125.128 177.164 125.959C177.423 126.026 177.692 126.041 177.957 126.003C178.221 125.966 178.476 125.876 178.706 125.741C178.936 125.605 179.137 125.425 179.298 125.211C179.459 124.997 179.575 124.754 179.642 124.495C179.709 124.237 179.724 123.967 179.686 123.703C179.649 123.438 179.559 123.183 179.423 122.953C179.287 122.723 179.107 122.522 178.894 122.361C178.68 122.201 178.437 122.084 178.178 122.017H178.18Z" fill="black"/>
<path d="M181.935 90.0487C180.439 86.9699 178.11 84.3721 175.212 82.5501C172.314 80.7281 168.964 79.7549 165.541 79.7409C162.118 79.7269 158.759 80.6726 155.847 82.4709C152.934 84.2691 150.584 86.8477 149.063 89.9142C144.754 89.9453 140.595 91.4944 137.316 94.289C134.037 97.0836 131.848 100.945 131.134 105.194C130.421 109.442 131.228 113.807 133.414 117.52C135.6 121.232 139.025 124.055 143.086 125.492V146.88C143.086 147.419 143.301 147.937 143.682 148.318C144.064 148.7 144.581 148.914 145.121 148.914H185.811C186.35 148.914 186.868 148.7 187.249 148.318C187.631 147.937 187.845 147.419 187.845 146.88V124.628C191.373 122.877 194.243 120.035 196.028 116.525C197.813 113.014 198.419 109.021 197.755 105.139C197.092 101.257 195.194 97.6919 192.344 94.9734C189.495 92.255 185.844 90.5278 181.935 90.0482V90.0487ZM183.776 144.845H147.155V140.776H183.776V144.845ZM185.048 121.427C184.672 121.579 184.35 121.84 184.124 122.176C183.897 122.512 183.776 122.908 183.776 123.313V136.707H177.673V130.604C177.673 130.064 177.458 129.547 177.077 129.165C176.695 128.784 176.178 128.569 175.638 128.569C175.099 128.569 174.581 128.784 174.2 129.165C173.818 129.547 173.604 130.064 173.604 130.604V136.707H167.5V130.604C167.5 130.064 167.286 129.547 166.904 129.165C166.523 128.784 166.005 128.569 165.466 128.569C164.926 128.569 164.409 128.784 164.027 129.165C163.646 129.547 163.431 130.064 163.431 130.604V136.707H157.328V130.604C157.328 130.064 157.113 129.547 156.732 129.165C156.35 128.784 155.833 128.569 155.293 128.569C154.754 128.569 154.236 128.784 153.855 129.165C153.473 129.547 153.259 130.064 153.259 130.604V136.707H147.155V123.987C147.155 123.536 147.005 123.098 146.729 122.741C146.452 122.384 146.065 122.13 145.628 122.017C142.272 121.15 139.347 119.088 137.402 116.219C135.457 113.35 134.625 109.87 135.062 106.432C135.499 102.993 137.175 99.8316 139.776 97.54C142.376 95.2484 145.724 93.9838 149.19 93.9832C149.495 93.9832 149.82 93.9964 150.214 94.0244C150.644 94.0553 151.073 93.9488 151.438 93.7202C151.803 93.4916 152.087 93.1529 152.247 92.7528C153.305 90.1145 155.128 87.8531 157.481 86.2595C159.835 84.6659 162.612 83.8132 165.454 83.811C168.297 83.8088 171.075 84.6572 173.431 86.2471C175.787 87.8369 177.614 90.0955 178.676 92.7322C178.821 93.0919 179.066 93.4027 179.381 93.628C179.697 93.8533 180.07 93.9837 180.458 94.0038C183.693 94.1747 186.774 95.4441 189.191 97.6023C191.608 99.7605 193.217 102.678 193.752 105.874C194.287 109.07 193.716 112.353 192.134 115.181C190.551 118.008 188.051 120.212 185.048 121.427Z" fill="black"/>
<path d="M226.26 101.161C226.086 100.836 225.827 100.565 225.511 100.376C225.195 100.186 224.834 100.087 224.466 100.087H210.224V96.0175H220.397C220.765 96.0175 221.126 95.9176 221.442 95.7283C221.758 95.5391 222.017 95.2677 222.191 94.943C222.364 94.6183 222.447 94.2525 222.429 93.8847C222.411 93.5169 222.294 93.1608 222.089 92.8544L218.773 87.8796L222.089 82.9048C222.294 82.5984 222.411 82.2423 222.429 81.8745C222.447 81.5067 222.364 81.1409 222.191 80.8162C222.017 80.4916 221.758 80.2201 221.442 80.0309C221.126 79.8416 220.765 79.7417 220.397 79.7417H210.224V70.5865C210.222 68.6986 209.471 66.8887 208.136 65.5538C206.801 64.2189 204.992 63.468 203.104 63.4658H118.673C115.976 63.4688 113.39 64.5416 111.483 66.4486C109.576 68.3556 108.503 70.9413 108.5 73.6382V175.362C108.503 178.059 109.576 180.645 111.483 182.552C113.39 184.459 115.976 185.532 118.673 185.535H203.104C204.992 185.533 206.801 184.782 208.136 183.447C209.471 182.112 210.222 180.302 210.224 178.414V116.362H224.466C224.834 116.362 225.195 116.262 225.511 116.073C225.827 115.884 226.086 115.612 226.26 115.288C226.433 114.963 226.516 114.597 226.498 114.23C226.48 113.862 226.363 113.506 226.158 113.199L222.842 108.224L226.158 103.25C226.363 102.943 226.48 102.587 226.498 102.219C226.516 101.852 226.433 101.486 226.26 101.161ZM210.224 83.8106H216.595L214.635 86.751C214.412 87.0852 214.293 87.4779 214.293 87.8796C214.293 88.2813 214.412 88.674 214.635 89.0082L216.595 91.9486H210.224V83.8106ZM112.569 73.6382C112.571 72.0201 113.215 70.4687 114.359 69.3245C115.503 68.1803 117.055 67.5367 118.673 67.5348H120.707V165.19H118.673C116.47 165.188 114.327 165.904 112.569 167.23V73.6382ZM198.017 173.328H149.19C148.65 173.328 148.133 173.542 147.751 173.924C147.37 174.305 147.155 174.823 147.155 175.362C147.155 175.902 147.37 176.419 147.751 176.801C148.133 177.183 148.65 177.397 149.19 177.397H198.017V181.466H118.673C117.054 181.466 115.501 180.823 114.357 179.678C113.212 178.534 112.569 176.981 112.569 175.362C112.569 173.744 113.212 172.191 114.357 171.047C115.501 169.902 117.054 169.259 118.673 169.259H198.017V173.328ZM206.155 178.414C206.155 179.223 205.833 179.999 205.261 180.571C204.688 181.143 203.913 181.465 203.104 181.466H202.086V169.259H203.104C204.16 169.26 205.202 169.025 206.155 168.571V178.414ZM206.155 161.882V162.138C206.155 162.947 205.833 163.723 205.261 164.295C204.688 164.867 203.913 165.189 203.104 165.19H124.776V67.5348H178.864L186.941 75.6114C186.023 77.1648 185.647 78.9794 185.874 80.7696C186.1 82.5598 186.915 84.2238 188.191 85.4997C189.467 86.7757 191.131 87.591 192.921 87.8174C194.712 88.0438 196.526 87.6683 198.08 86.7502L206.155 94.8258V161.882ZM189.88 79.7417C189.88 78.9369 190.118 78.1502 190.565 77.4811C191.012 76.8119 191.648 76.2904 192.391 75.9824C193.135 75.6745 193.953 75.5939 194.742 75.7509C195.532 75.9079 196.257 76.2954 196.826 76.8645C197.395 77.4335 197.782 78.1586 197.939 78.9479C198.096 79.7372 198.016 80.5553 197.708 81.2988C197.4 82.0423 196.878 82.6778 196.209 83.1249C195.54 83.572 194.753 83.8106 193.949 83.8106C192.87 83.8094 191.836 83.3803 191.073 82.6175C190.31 81.8547 189.881 80.8204 189.88 79.7417ZM206.155 89.0713L200.956 83.8719C201.874 82.3186 202.25 80.5039 202.023 78.7138C201.797 76.9236 200.982 75.2596 199.706 73.9836C198.43 72.7077 196.766 71.8924 194.976 71.666C193.186 71.4396 191.371 71.815 189.818 72.7331L184.619 67.5348H203.104C203.913 67.5357 204.688 67.8575 205.261 68.4296C205.833 69.0017 206.155 69.7774 206.155 70.5865V89.0713ZM218.704 109.353L220.664 112.293H210.224V104.155H220.664L218.704 107.096C218.481 107.43 218.362 107.823 218.362 108.224C218.362 108.626 218.481 109.019 218.704 109.353Z" fill="black"/>
<path d="M157.328 155.018H151.224C150.685 155.018 150.167 155.232 149.786 155.613C149.404 155.995 149.19 156.512 149.19 157.052C149.19 157.592 149.404 158.109 149.786 158.491C150.167 158.872 150.685 159.087 151.224 159.087H157.328C157.867 159.087 158.385 158.872 158.766 158.491C159.148 158.109 159.362 157.592 159.362 157.052C159.362 156.512 159.148 155.995 158.766 155.613C158.385 155.232 157.867 155.018 157.328 155.018Z" fill="black"/>
<path d="M181.742 155.018H165.466C164.926 155.018 164.409 155.232 164.027 155.613C163.646 155.995 163.431 156.512 163.431 157.052C163.431 157.592 163.646 158.109 164.027 158.491C164.409 158.872 164.926 159.087 165.466 159.087H181.742C182.281 159.087 182.799 158.872 183.18 158.491C183.562 158.109 183.776 157.592 183.776 157.052C183.776 156.512 183.562 155.995 183.18 155.613C182.799 155.232 182.281 155.018 181.742 155.018Z" fill="black"/>
<path d="M116.638 175.363C116.638 175.902 116.853 176.42 117.234 176.801C117.616 177.183 118.133 177.397 118.673 177.397H130.88C131.419 177.397 131.937 177.183 132.318 176.801C132.7 176.42 132.914 175.902 132.914 175.363C132.914 174.823 132.7 174.306 132.318 173.924C131.937 173.542 131.419 173.328 130.88 173.328H118.673C118.133 173.328 117.616 173.542 117.234 173.924C116.853 174.306 116.638 174.823 116.638 175.363Z" fill="black"/>
<path d="M139.018 177.397H141.052C141.592 177.397 142.109 177.183 142.491 176.801C142.872 176.42 143.086 175.902 143.086 175.363C143.086 174.823 142.872 174.306 142.491 173.924C142.109 173.542 141.592 173.328 141.052 173.328H139.018C138.478 173.328 137.96 173.542 137.579 173.924C137.197 174.306 136.983 174.823 136.983 175.363C136.983 175.902 137.197 176.42 137.579 176.801C137.96 177.183 138.478 177.397 139.018 177.397Z" fill="black"/>
<g filter="url(#filter0_d_4095_1494)">
<rect width="52" height="52" rx="12" transform="matrix(-1 0 0 1 248 129)" fill="white"/>
<path d="M237.999 155V153.974C237.999 149.166 230.971 145.4 221.999 145.4C213.028 145.4 206 149.166 206 153.974V155C206.001 155.589 206.478 156.066 207.067 156.067V158.32C206.823 158.419 206.609 158.579 206.445 158.784C206.151 159.147 205.994 159.6 206 160.067C206 162.566 207.7 164.6 209.789 164.6H234.21C235.276 164.585 236.277 164.081 236.923 163.232C237.636 162.332 238.016 161.214 237.999 160.067C238.023 159.324 237.604 158.638 236.932 158.319V156.067C237.521 156.066 237.998 155.589 237.999 155ZM236.095 162.558C235.65 163.156 234.955 163.515 234.21 163.533H209.789C208.288 163.533 207.067 161.978 207.067 160.067C207.062 159.846 207.134 159.631 207.271 159.458C207.352 159.344 207.48 159.274 207.619 159.267H213.405L214.668 160.687C214.769 160.801 214.914 160.867 215.066 160.867C215.219 160.867 215.364 160.801 215.465 160.687L217.64 158.24C218.681 159.587 220.297 160.363 221.999 160.333C223.701 160.363 225.318 159.587 226.358 158.24L228.534 160.687C228.635 160.801 228.78 160.867 228.933 160.867C229.085 160.867 229.23 160.801 229.331 160.687L230.594 159.267H236.38C236.674 159.267 236.932 159.641 236.932 160.067C236.949 160.969 236.653 161.849 236.095 162.558ZM212.457 158.2H208.133V156.067H210.56L212.457 158.2ZM211.988 156.067H218.145L215.066 159.531L211.988 156.067ZM218.376 157.413L219.572 156.067H224.427L225.623 157.413C224.783 158.577 223.435 159.267 221.999 159.267C220.564 159.267 219.216 158.577 218.376 157.413ZM228.933 159.531L225.854 156.067H232.011L228.933 159.531ZM233.439 156.067H235.866V158.2H231.542L233.439 156.067ZM207.067 155V153.974C207.067 150.637 211.422 147.802 217.425 146.829C218.253 147.305 218.774 148.178 218.8 149.134C218.8 149.428 219.038 149.667 219.333 149.667C219.627 149.667 219.866 149.428 219.866 149.134C219.849 148.205 219.49 147.315 218.857 146.636C219.478 146.569 220.113 146.522 220.761 146.495C222.063 146.707 223.03 147.815 223.066 149.134C223.066 149.428 223.305 149.667 223.599 149.667C223.894 149.667 224.133 149.428 224.133 149.134C224.123 148.135 223.715 147.181 222.998 146.486C223.931 146.517 224.842 146.589 225.721 146.703C226.677 147.14 227.302 148.083 227.333 149.134C227.333 149.428 227.571 149.667 227.866 149.667C228.16 149.667 228.399 149.428 228.399 149.134C228.393 148.384 228.158 147.654 227.725 147.042C233.126 148.173 236.932 150.854 236.932 153.974V155H207.067V155Z" fill="black"/>
<path d="M209.579 161.555C209.528 161.507 209.468 161.469 209.402 161.443C209.274 161.384 209.126 161.384 208.997 161.443C208.932 161.47 208.873 161.508 208.821 161.555C208.773 161.606 208.735 161.666 208.709 161.731C208.682 161.795 208.667 161.864 208.666 161.934C208.665 162.004 208.679 162.073 208.709 162.136C208.736 162.201 208.774 162.26 208.821 162.312C208.873 162.359 208.932 162.397 208.997 162.424C209.195 162.51 209.426 162.465 209.579 162.312C209.625 162.26 209.663 162.201 209.691 162.136C209.747 162.007 209.747 161.86 209.691 161.731C209.663 161.667 209.626 161.607 209.579 161.555Z" fill="black"/>
<path d="M211.178 160.488C211.127 160.441 211.067 160.403 211.002 160.376C210.874 160.317 210.726 160.317 210.597 160.376C210.532 160.403 210.473 160.441 210.421 160.488C210.373 160.539 210.335 160.599 210.309 160.664C210.282 160.728 210.267 160.797 210.266 160.867C210.265 160.937 210.279 161.006 210.309 161.069C210.336 161.134 210.374 161.194 210.421 161.246C210.574 161.398 210.804 161.443 211.002 161.358C211.067 161.33 211.126 161.293 211.178 161.246C211.225 161.194 211.263 161.134 211.29 161.069C211.32 161.006 211.335 160.937 211.333 160.867C211.332 160.797 211.318 160.728 211.29 160.664C211.265 160.599 211.227 160.539 211.178 160.488Z" fill="black"/>
<path d="M212.778 161.555C212.727 161.507 212.668 161.469 212.602 161.443C212.474 161.384 212.326 161.384 212.197 161.443C212.132 161.47 212.073 161.508 212.021 161.555C211.973 161.606 211.935 161.666 211.909 161.731C211.882 161.795 211.867 161.864 211.866 161.934C211.865 162.004 211.879 162.073 211.909 162.136C211.958 162.27 212.063 162.376 212.197 162.424C212.395 162.509 212.626 162.465 212.778 162.312C212.825 162.26 212.863 162.201 212.89 162.136C212.947 162.007 212.947 161.86 212.89 161.731C212.863 161.667 212.825 161.607 212.778 161.555Z" fill="black"/>
<path d="M231.978 161.555C231.952 161.532 231.926 161.511 231.898 161.491C231.868 161.471 231.836 161.455 231.802 161.443C231.772 161.428 231.739 161.417 231.706 161.411C231.53 161.375 231.348 161.429 231.221 161.555C231.172 161.606 231.134 161.666 231.108 161.731C231.052 161.86 231.052 162.007 231.108 162.136C231.157 162.27 231.263 162.375 231.396 162.424C231.526 162.481 231.673 162.481 231.802 162.424C231.866 162.397 231.926 162.359 231.978 162.312C232.025 162.26 232.063 162.201 232.09 162.136C232.147 162.007 232.147 161.86 232.09 161.731C232.064 161.666 232.026 161.606 231.978 161.555Z" fill="black"/>
<path d="M233.578 160.488C233.526 160.441 233.466 160.403 233.402 160.376C233.273 160.317 233.125 160.317 232.996 160.376C232.863 160.425 232.757 160.53 232.708 160.664C232.623 160.863 232.668 161.093 232.82 161.246C232.973 161.398 233.203 161.442 233.402 161.357C233.466 161.33 233.526 161.292 233.578 161.245C233.625 161.193 233.663 161.134 233.69 161.069C233.72 161.006 233.734 160.937 233.733 160.867C233.732 160.797 233.717 160.728 233.69 160.664C233.664 160.599 233.626 160.539 233.578 160.488Z" fill="black"/>
<path d="M235.178 161.555C235.152 161.532 235.126 161.511 235.098 161.491C235.068 161.471 235.036 161.455 235.002 161.443C234.971 161.428 234.939 161.417 234.906 161.411C234.835 161.395 234.763 161.395 234.692 161.411C234.659 161.417 234.627 161.428 234.596 161.443C234.562 161.455 234.53 161.471 234.5 161.491C234.473 161.511 234.446 161.532 234.42 161.555C234.372 161.606 234.334 161.666 234.308 161.731C234.252 161.86 234.252 162.007 234.308 162.136C234.357 162.27 234.462 162.375 234.596 162.424C234.725 162.481 234.873 162.481 235.002 162.424C235.066 162.397 235.126 162.359 235.178 162.312C235.225 162.26 235.263 162.201 235.29 162.136C235.347 162.007 235.347 161.86 235.29 161.731C235.264 161.666 235.226 161.606 235.178 161.555Z" fill="black"/>
<path d="M224.511 161.555C224.46 161.507 224.401 161.469 224.335 161.443C224.207 161.384 224.059 161.384 223.93 161.443C223.865 161.47 223.806 161.508 223.754 161.555C223.706 161.606 223.668 161.666 223.642 161.731C223.612 161.794 223.598 161.864 223.599 161.934C223.598 162.003 223.611 162.072 223.637 162.136C223.668 162.2 223.707 162.259 223.754 162.312C223.907 162.465 224.137 162.51 224.335 162.424C224.4 162.397 224.459 162.359 224.511 162.312C224.558 162.259 224.598 162.2 224.629 162.136C224.654 162.072 224.667 162.003 224.666 161.934C224.668 161.864 224.653 161.794 224.623 161.731C224.596 161.667 224.558 161.607 224.511 161.555Z" fill="black"/>
<path d="M226.111 160.488C226.06 160.441 226 160.403 225.935 160.376C225.807 160.317 225.659 160.317 225.53 160.376C225.396 160.425 225.291 160.53 225.242 160.664C225.157 160.863 225.201 161.093 225.354 161.246C225.507 161.398 225.737 161.442 225.935 161.357C226 161.33 226.06 161.292 226.111 161.245C226.158 161.193 226.196 161.134 226.223 161.069C226.253 161.006 226.268 160.937 226.266 160.867C226.265 160.797 226.251 160.728 226.223 160.664C226.198 160.599 226.16 160.539 226.111 160.488Z" fill="black"/>
<path d="M227.711 161.555C227.66 161.507 227.601 161.469 227.535 161.443C227.407 161.384 227.259 161.384 227.13 161.443C227.065 161.47 227.006 161.508 226.954 161.555C226.906 161.606 226.868 161.666 226.842 161.731C226.812 161.794 226.798 161.864 226.799 161.934C226.798 162.003 226.811 162.072 226.837 162.136C226.867 162.2 226.907 162.259 226.954 162.312C227.107 162.465 227.337 162.51 227.535 162.424C227.6 162.397 227.659 162.359 227.711 162.312C227.758 162.259 227.797 162.2 227.828 162.136C227.854 162.072 227.867 162.003 227.866 161.934C227.868 161.864 227.853 161.794 227.823 161.731C227.796 161.667 227.758 161.607 227.711 161.555Z" fill="black"/>
<path d="M217.045 161.555C216.831 161.358 216.502 161.358 216.288 161.555C216.239 161.606 216.201 161.666 216.175 161.731C216.119 161.86 216.119 162.007 216.175 162.136C216.224 162.27 216.33 162.376 216.463 162.424C216.593 162.481 216.74 162.481 216.869 162.424C216.933 162.397 216.993 162.36 217.045 162.312C217.092 162.26 217.13 162.201 217.157 162.136C217.214 162.007 217.214 161.86 217.157 161.731C217.131 161.666 217.093 161.606 217.045 161.555Z" fill="black"/>
<path d="M218.645 160.488C218.593 160.441 218.533 160.403 218.469 160.376C218.34 160.317 218.192 160.317 218.063 160.376C217.93 160.425 217.824 160.53 217.775 160.664C217.746 160.727 217.731 160.797 217.733 160.867C217.732 160.936 217.744 161.005 217.77 161.069C217.801 161.133 217.841 161.192 217.888 161.246C218.04 161.398 218.27 161.443 218.469 161.358C218.533 161.33 218.593 161.293 218.645 161.246C218.692 161.194 218.73 161.134 218.757 161.069C218.787 161.006 218.801 160.937 218.8 160.867C218.799 160.797 218.784 160.728 218.757 160.664C218.731 160.599 218.693 160.539 218.645 160.488Z" fill="black"/>
<path d="M220.245 161.555C220.031 161.358 219.701 161.358 219.488 161.555C219.439 161.606 219.401 161.666 219.375 161.731C219.319 161.86 219.319 162.007 219.375 162.136C219.424 162.27 219.53 162.376 219.663 162.424C219.793 162.481 219.94 162.481 220.069 162.424C220.133 162.397 220.193 162.36 220.245 162.312C220.292 162.26 220.33 162.201 220.357 162.136C220.414 162.007 220.414 161.86 220.357 161.731C220.331 161.666 220.293 161.606 220.245 161.555Z" fill="black"/>
</g>
<g filter="url(#filter1_d_4095_1494)">
<rect width="52" height="52" rx="12" transform="matrix(-1 0 0 1 131 48)" fill="white"/>
<path d="M90.0005 73.4992C90.0005 78.6892 92.5454 83.6591 96.5004 86.2641V87.4991C96.5004 88.3241 97.1754 88.999 98.0004 88.999H112C112.825 88.999 113.5 88.3241 113.5 87.4991V86.2641C117.455 83.6591 120 78.6892 120 73.4992C120 72.6742 119.325 71.9992 118.5 71.9992H117.5C117.745 71.7042 117.955 71.3792 118.105 71.0193C118.545 69.9493 118.46 68.7293 117.905 67.7293C118.27 67.4043 118.56 66.9993 118.755 66.5293C119.085 65.7193 119.08 64.8343 118.74 64.0293C118.4 63.2293 117.775 62.6093 116.985 62.2894C116.95 62.2744 116.92 62.2594 116.885 62.2494C117.14 60.9994 116.48 59.7044 115.26 59.1994C114.045 58.7044 112.665 59.1644 111.97 60.2344C111.94 60.2194 111.91 60.2094 111.88 60.1944C110.22 59.5144 108.32 60.3144 107.64 61.9694C107.445 62.4393 107.365 62.9293 107.395 63.4243C106.765 63.6093 106.2 63.9543 105.745 64.4193C104.945 63.2793 103.87 62.4943 102.495 62.4943C100.95 62.4943 99.7804 63.4793 98.9604 64.8543C98.6104 64.5293 98.1804 64.3093 97.7154 64.2193L97.7804 61.7594C97.7904 61.3594 97.6454 60.9794 97.3704 60.6894C97.0954 60.3994 96.7204 60.2294 96.3154 60.2194C96.3004 60.2194 96.2904 60.2194 96.2754 60.2194C95.7304 60.2194 95.2554 60.5194 94.9904 60.9594C94.7104 60.2294 93.9154 59.8244 93.1554 60.0594C92.7704 60.1744 92.4554 60.4344 92.2704 60.7894C92.1004 61.1144 92.0554 61.4794 92.1404 61.8344C92.0154 61.7744 91.8854 61.7244 91.7504 61.7044C91.3554 61.6344 90.9555 61.7294 90.6305 61.9594C90.3055 62.1944 90.0855 62.5443 90.0205 62.9393C89.9555 63.3343 90.0455 63.7293 90.2755 64.0543L91.7054 66.0693C91.4904 66.2893 91.3004 66.5343 91.1754 66.8243C90.8705 67.5043 90.8805 68.2843 91.1954 68.9593L92.6204 71.9992H91.5004C90.6755 71.9992 90.0005 72.6742 90.0005 73.4992ZM112.5 87.4991C112.5 87.7741 112.275 87.9991 112 87.9991H98.0004C97.7254 87.9991 97.5004 87.7741 97.5004 87.4991V86.4991H112.5V87.4991ZM119 73.4992C119 78.3292 116.535 83.1291 112.855 85.4991H97.1454C93.4654 83.1291 91.0005 78.3292 91.0005 73.4992C91.0005 73.2242 91.2254 72.9992 91.5004 72.9992H118.5C118.775 72.9992 119 73.2242 119 73.4992ZM101 70.9993C101 70.1743 101.675 69.4993 102.5 69.4993C103.325 69.4993 104 70.1743 104 70.9993C104 71.3692 103.855 71.7242 103.605 71.9992H101.395C101.145 71.7242 101 71.3692 101 70.9993ZM108.035 64.3093C108.17 64.2893 108.295 64.2093 108.37 64.0993C108.45 63.9843 108.475 63.8443 108.445 63.7093C108.345 63.2593 108.385 62.7943 108.565 62.3593C109.035 61.2094 110.355 60.6594 111.49 61.1244C111.62 61.1844 111.775 61.2494 111.885 61.3344C112.01 61.4244 112.17 61.4544 112.32 61.4094C112.47 61.3644 112.59 61.2594 112.645 61.1144L112.665 61.0694C113.025 60.2044 114.02 59.7794 114.89 60.1344C115.76 60.4894 116.175 61.4894 115.82 62.3593L115.8 62.4093C115.745 62.5493 115.755 62.7093 115.825 62.8393C115.9 62.9693 116.03 63.0643 116.18 63.0893C116.315 63.1093 116.455 63.1543 116.6 63.2193C117.155 63.4443 117.59 63.8743 117.825 64.4243C118.06 64.9793 118.065 65.5943 117.835 66.1543C117.655 66.5893 117.355 66.9493 116.975 67.1943C116.86 67.2693 116.775 67.3893 116.75 67.5243C116.725 67.6593 116.755 67.7993 116.84 67.9143C117.42 68.6993 117.555 69.7443 117.185 70.6443C116.94 71.2292 116.525 71.6942 115.985 72.0042H110.575L111.06 70.8193L113.33 70.4493C113.6 70.4043 113.79 70.1493 113.745 69.8743C113.7 69.5993 113.445 69.4193 113.17 69.4593L111.505 69.7293L112.425 67.4793L114.7 67.1093C114.97 67.0643 115.16 66.8093 115.115 66.5343C115.07 66.2593 114.815 66.0793 114.54 66.1193L112.87 66.3943L113.875 63.9293C113.98 63.6743 113.855 63.3843 113.6 63.2793C113.345 63.1743 113.055 63.2993 112.95 63.5543L111.945 66.0143L110.945 64.6493C110.78 64.4243 110.47 64.3793 110.245 64.5393C110.02 64.7043 109.975 65.0143 110.135 65.2393L111.495 67.0993L110.575 69.3493L109.575 67.9843C109.41 67.7593 109.1 67.7143 108.875 67.8743C108.65 68.0393 108.605 68.3493 108.765 68.5743L110.125 70.4343L109.485 71.9992H107.255C107.405 71.5142 107.495 71.0093 107.495 70.4993C107.495 68.8943 107.1 66.9043 106.285 65.3143C106.72 64.7743 107.34 64.4143 108.03 64.3093H108.035ZM102.5 63.4993C105.075 63.4993 106.5 67.6393 106.5 70.4993C106.5 71.0142 106.395 71.5242 106.2 71.9992H104.79C104.925 71.6892 105 71.3492 105 70.9993C105 69.6193 103.88 68.4993 102.5 68.4993C101.12 68.4993 100 69.6193 100 70.9993C100 71.3492 100.075 71.6892 100.21 71.9992H98.8004C98.6054 71.5242 98.5004 71.0142 98.5004 70.4993C98.5004 70.2143 98.5204 69.9093 98.5454 69.6043C98.8004 66.8493 100.18 63.4993 102.5 63.4993ZM95.9354 61.3644C96.0304 61.2744 96.1504 61.2094 96.2904 61.2294C96.4254 61.2294 96.5504 61.2894 96.6454 61.3844C96.7354 61.4794 96.7854 61.6044 96.7804 61.7394L96.7154 64.2293C96.6304 64.2443 96.5504 64.2543 96.4654 64.2843L96.0504 64.4093L95.7354 63.3693L95.7754 61.7194C95.7754 61.5844 95.8354 61.4594 95.9304 61.3694L95.9354 61.3644ZM93.1604 61.2644C93.2204 61.1444 93.3254 61.0594 93.4554 61.0194C93.7204 60.9394 94.0004 61.0894 94.0804 61.3544L95.1004 64.6993L94.1454 64.9943L93.1254 61.6494C93.0854 61.5244 93.1004 61.3844 93.1604 61.2694V61.2644ZM91.0105 63.1043C91.0305 62.9743 91.1004 62.8543 91.2104 62.7743C91.4354 62.6143 91.7504 62.6743 91.9104 62.8943L92.8704 64.2443L93.1854 65.2793L92.7754 65.4043C92.6904 65.4293 92.6204 65.4693 92.5404 65.5043L91.0904 63.4643C91.0155 63.3543 90.9905 63.2243 91.0105 63.0943V63.1043ZM92.6204 69.6393L94.8304 68.9643C95.0954 68.8843 95.2454 68.6043 95.1604 68.3393C95.0754 68.0743 94.8004 67.9243 94.5354 68.0093L92.1854 68.7243L92.0954 68.5293C91.9004 68.1143 91.8954 67.6393 92.0804 67.2243C92.2654 66.8093 92.6204 66.4943 93.0554 66.3643L96.7504 65.2343C97.3954 65.0343 98.0804 65.2793 98.4654 65.8093C98.0004 66.8693 97.7054 68.0493 97.5754 69.1643L96.5504 69.4743C96.2854 69.5543 96.1354 69.8343 96.2204 70.0993C96.2854 70.3143 96.4854 70.4543 96.7004 70.4543C96.7504 70.4543 96.7954 70.4493 96.8454 70.4343L97.5004 70.2343C97.5004 70.3193 97.4904 70.4093 97.4904 70.4943C97.4904 71.0043 97.5754 71.5092 97.7304 71.9942H93.7304L92.6254 69.6343L92.6204 69.6393Z" fill="black"/>
</g>
<defs>
<filter id="filter0_d_4095_1494" x="176" y="109" width="92" height="92" filterUnits="userSpaceOnUse" color-interpolation-filters="sRGB">
<feFlood flood-opacity="0" result="BackgroundImageFix"/>
<feColorMatrix in="SourceAlpha" type="matrix" values="0 0 0 0 0 0 0 0 0 0 0 0 0 0 0 0 0 0 127 0" result="hardAlpha"/>
<feOffset/>
<feGaussianBlur stdDeviation="10"/>
<feComposite in2="hardAlpha" operator="out"/>
<feColorMatrix type="matrix" values="0 0 0 0 0 0 0 0 0 0 0 0 0 0 0 0 0 0 0.12 0"/>
<feBlend mode="normal" in2="BackgroundImageFix" result="effect1_dropShadow_4095_1494"/>
<feBlend mode="normal" in="SourceGraphic" in2="effect1_dropShadow_4095_1494" result="shape"/>
</filter>
<filter id="filter1_d_4095_1494" x="59" y="28" width="92" height="92" filterUnits="userSpaceOnUse" color-interpolation-filters="sRGB">
<feFlood flood-opacity="0" result="BackgroundImageFix"/>
<feColorMatrix in="SourceAlpha" type="matrix" values="0 0 0 0 0 0 0 0 0 0 0 0 0 0 0 0 0 0 127 0" result="hardAlpha"/>
<feOffset/>
<feGaussianBlur stdDeviation="10"/>
<feComposite in2="hardAlpha" operator="out"/>
<feColorMatrix type="matrix" values="0 0 0 0 0 0 0 0 0 0 0 0 0 0 0 0 0 0 0.12 0"/>
<feBlend mode="normal" in2="BackgroundImageFix" result="effect1_dropShadow_4095_1494"/>
<feBlend mode="normal" in="SourceGraphic" in2="effect1_dropShadow_4095_1494" result="shape"/>
</filter>
</defs>
</svg>
