<svg width="335" height="249" viewBox="0 0 335 249" fill="none" xmlns="http://www.w3.org/2000/svg">
<path fill-rule="evenodd" clip-rule="evenodd" d="M119.696 56.3726H187.276C189.856 56.3726 191.947 58.464 191.947 61.044V175.338H115.024V61.044C115.024 58.464 117.116 56.3726 119.696 56.3726Z" fill="#DADADA"/>
<path fill-rule="evenodd" clip-rule="evenodd" d="M115.024 182.501H191.947V196.831C191.947 199.411 189.856 201.503 187.276 201.503H119.696C117.116 201.503 115.024 199.411 115.024 196.831V182.501Z" fill="#DADADA"/>
<path d="M191.947 180.478C193.041 180.478 193.932 181.345 193.97 182.429L193.971 182.502V198.385C193.971 199.503 193.065 200.409 191.947 200.409C190.853 200.409 189.962 199.542 189.924 198.457L189.923 198.385V184.526H117.049V198.385C117.049 199.478 116.181 200.369 115.097 200.408L115.024 200.409C113.931 200.409 113.04 199.542 113.001 198.457L113 198.385V182.502C113 181.408 113.867 180.517 114.952 180.479L115.024 180.478H191.947Z" fill="black"/>
<path d="M143.053 198.229C144.171 198.229 145.077 197.323 145.077 196.205C145.077 195.111 144.21 194.22 143.125 194.182L143.053 194.18H131.057L131.051 194.12C130.946 193.127 130.123 192.349 129.111 192.313L129.039 192.312C127.945 192.312 127.054 193.179 127.016 194.264L127.014 194.336V196.205C127.014 197.298 127.882 198.19 128.966 198.228L129.039 198.229H143.053Z" fill="black"/>
<path fill-rule="evenodd" clip-rule="evenodd" d="M117.516 182.502V175.65H189.456V182.502H117.516Z" fill="#DADADA"/>
<path d="M189.456 173.625H117.516C116.398 173.625 115.491 174.532 115.491 175.65V182.501C115.491 183.619 116.398 184.525 117.516 184.525H189.456C190.574 184.525 191.48 183.619 191.48 182.501V175.65C191.48 174.532 190.574 173.625 189.456 173.625ZM187.431 177.674V180.477H119.54V177.674H187.431Z" fill="black"/>
<path fill-rule="evenodd" clip-rule="evenodd" d="M205.962 49.5215H215.304C217.884 49.5215 219.976 51.613 219.976 54.1929V177.83C219.976 180.41 217.884 182.501 215.304 182.501H205.962V49.5215Z" fill="#C8C8C8"/>
<path fill-rule="evenodd" clip-rule="evenodd" d="M205.962 49.5215L191.947 56.5204V175.503L205.962 182.501V49.5215Z" fill="#DADADA"/>
<path fill-rule="evenodd" clip-rule="evenodd" d="M124.367 66.0273H182.604V166.307H124.367V66.0273Z" fill="#D6EDFF"/>
<path d="M215.304 47.4971C218.965 47.4971 221.94 50.4352 222 54.0821V54.1928V177.83C222 181.491 219.062 184.466 215.415 184.526H215.304H205.961C205.387 184.526 204.869 184.287 204.501 183.903C204.269 183.861 204.04 183.79 203.816 183.69L203.705 183.637L191.141 177.363H115.024C113.931 177.363 113.04 176.495 113.001 175.411L113 175.339V61.0442C113 57.3833 115.938 54.4085 119.585 54.3494L119.696 54.3485H191.765L203.705 48.3854C203.957 48.2598 204.224 48.1711 204.499 48.1212C204.848 47.7569 205.332 47.5227 205.871 47.499L205.961 47.4971H215.304ZM215.304 51.5456H207.986V180.477H215.304C216.74 180.477 217.908 179.335 217.95 177.909L217.951 177.83V54.1928C217.951 52.7574 216.809 51.5888 215.384 51.5456H215.304ZM203.937 52.7948L193.971 57.7717V174.251L203.937 179.228V52.7948ZM189.923 58.3971H119.696C118.26 58.3971 117.092 59.5395 117.05 60.9647L117.049 61.0442V173.314H189.923V58.3971Z" fill="black"/>
<path d="M175.286 66.0273H180.58V163.972H125.924V158.677H175.286V129.319L126.509 127.634L126.601 122.342L175.286 122.341V93.7339L125.882 92.9451L125.924 87.6512L175.286 87.6511V66.0273Z" fill="#B8E3FE"/>
<path d="M162.673 165.996C170.757 165.996 177.31 159.443 177.31 151.359C177.31 143.275 170.757 136.722 162.673 136.722C154.589 136.722 148.036 143.275 148.036 151.359C148.036 159.443 154.589 165.996 162.673 165.996Z" fill="#8EB80D"/>
<path d="M159.733 135.315L161.43 138.037L163.024 138.347L164.815 135.476L164.976 135.577C170.265 138.949 172.931 144.32 172.931 151.435C172.931 158.522 170.392 163.926 165.334 167.417L165.18 167.522L163.582 165.158L160.703 165.837L160.624 165.502L159.368 167.361C154.208 163.875 151.617 158.433 151.617 151.274C151.617 144.159 154.283 138.788 159.572 135.417L159.733 135.315ZM164.376 140.157L164.337 140.365C163.347 145.713 162.846 149.779 162.829 152.527L162.828 152.668C162.828 155.323 163.298 158.824 164.243 163.149C167.341 160.465 168.882 156.614 168.882 151.435C168.882 146.451 167.389 142.746 164.376 140.157ZM160.309 139.881L160.206 139.967C157.17 142.558 155.666 146.272 155.666 151.274C155.666 156.29 157.111 160.06 160.016 162.731L159.896 162.134C159.153 158.383 158.78 155.233 158.78 152.668C158.78 149.672 159.291 145.422 160.309 139.881Z" fill="#72930D"/>
<path fill-rule="evenodd" clip-rule="evenodd" d="M142.274 165.996C149.24 165.996 154.887 160.419 154.887 153.539H129.661C129.661 160.419 135.308 165.996 142.274 165.996Z" fill="#F35B50"/>
<path fill-rule="evenodd" clip-rule="evenodd" d="M164.853 128.936V107.759L170.147 102.465L175.441 107.759V128.936H164.853Z" fill="#339EFF"/>
<path fill-rule="evenodd" clip-rule="evenodd" d="M133.087 113.053L159.559 116.168V128.936H133.087V113.053Z" fill="#FFC979"/>
<path d="M158.518 122.341V127.636H133.087V122.341H158.518Z" fill="#FFB141"/>
<path d="M170.303 92.8101C173.829 92.8101 176.687 89.9517 176.687 86.4258C176.687 82.8998 173.829 80.0415 170.303 80.0415C166.777 80.0415 163.919 82.8998 163.919 86.4258C163.919 89.9517 166.777 92.8101 170.303 92.8101Z" fill="#F35B50"/>
<path d="M157.534 92.8101C161.06 92.8101 163.919 89.9517 163.919 86.4258C163.919 82.8998 161.06 80.0415 157.534 80.0415C154.008 80.0415 151.15 82.8998 151.15 86.4258C151.15 89.9517 154.008 92.8101 157.534 92.8101Z" fill="#F35B50"/>
<path d="M182.604 64.0024C183.698 64.0024 184.589 64.8698 184.627 65.9541L184.629 66.0267V166.307C184.629 167.4 183.761 168.292 182.677 168.33L182.604 168.331H124.367C123.274 168.331 122.383 167.464 122.344 166.379L122.343 166.307V66.0267C122.343 64.933 123.21 64.0419 124.295 64.0037L124.367 64.0024H182.604ZM180.58 130.96H126.392V164.282L132.461 164.283C129.499 161.634 127.637 157.803 127.637 153.538C127.637 152.444 128.505 151.553 129.589 151.515L129.662 151.514L146.012 151.514L146.012 151.358C146.012 142.156 153.471 134.697 162.673 134.697C171.875 134.697 179.334 142.156 179.334 151.358C179.334 156.573 176.939 161.228 173.188 164.283L180.58 164.282V130.96ZM162.673 138.745C155.707 138.745 150.06 144.392 150.06 151.358L150.062 151.514H154.887C155.981 151.514 156.872 152.381 156.91 153.466L156.912 153.538C156.912 156.333 156.112 158.942 154.727 161.154C156.947 162.959 159.728 163.971 162.673 163.971C169.639 163.971 175.286 158.324 175.286 151.358C175.286 144.392 169.639 138.745 162.673 138.745ZM152.664 155.562H131.885L131.918 155.72C132.914 160.331 137.002 163.819 141.949 163.966L142.099 163.97L142.274 163.971C147.316 163.971 151.528 160.502 152.599 155.861L152.631 155.72L152.664 155.562ZM180.58 95.9239H126.392V126.911H131.063V113.052C131.063 111.864 132.079 110.937 133.253 111.035L133.324 111.042L159.795 114.156C160.79 114.273 161.546 115.1 161.582 116.094L161.583 116.167V126.911H162.829V107.758C162.829 107.253 163.018 106.767 163.356 106.395L163.422 106.327L168.716 101.032C169.487 100.261 170.726 100.242 171.52 100.976L171.579 101.032L176.873 106.327C177.23 106.684 177.44 107.161 177.464 107.664L177.466 107.758V126.911H180.58V95.9239ZM170.147 105.327L166.877 108.597V126.911H173.417V108.597L170.147 105.327ZM135.112 115.329V126.911H157.534V117.967L135.112 115.329ZM180.58 68.051H126.392V91.8755H151.131C149.909 90.4405 149.16 88.5895 149.127 86.5644L149.126 86.4253C149.126 83.1012 151.055 80.2276 153.854 78.8627L152.63 77.1868C151.97 76.2842 152.167 75.0177 153.07 74.3581C153.952 73.7138 155.181 73.8867 155.852 74.7363L155.899 74.7981L158.275 78.0489C160.528 78.2455 162.527 79.331 163.919 80.9528C165.461 79.1554 167.749 78.0167 170.303 78.0167C174.947 78.0167 178.712 81.7814 178.712 86.4253C178.712 88.5047 177.957 90.4077 176.706 91.8755H180.58V68.051ZM170.303 82.0653C167.895 82.0653 165.943 84.0173 165.943 86.4253C165.943 88.8333 167.895 90.7853 170.303 90.7853C172.711 90.7853 174.663 88.8333 174.663 86.4253C174.663 84.0173 172.711 82.0653 170.303 82.0653ZM157.534 82.0653C155.126 82.0653 153.174 84.0173 153.174 86.4253C153.174 88.8333 155.126 90.7853 157.534 90.7853C159.942 90.7853 161.894 88.8333 161.894 86.4253C161.894 84.0173 159.942 82.0653 157.534 82.0653Z" fill="black"/>
<path d="M273 66.5V30.5C273 23.8726 267.627 18.5 261 18.5H225" stroke="black" stroke-opacity="0.05" stroke-width="4"/>
<path d="M61 66.5V30.5C61 23.8726 66.3726 18.5 73 18.5H109" stroke="black" stroke-opacity="0.05" stroke-width="4"/>
<path d="M61 182.5L61 218.5C61 225.127 66.3726 230.5 73 230.5L109 230.5" stroke="black" stroke-opacity="0.05" stroke-width="4"/>
<path d="M273 182.5L273 218.5C273 225.127 267.627 230.5 261 230.5L225 230.5" stroke="black" stroke-opacity="0.05" stroke-width="4"/>
</svg>
