<svg width="17" height="20" viewBox="0 0 17 20" fill="none" xmlns="http://www.w3.org/2000/svg">
<path d="M15.5588 7.92421C13.5563 5.0757 11.1034 5.70402 9.48033 6.1198C9.30924 6.16362 9.1417 6.20655 8.98319 6.24312C9.18729 4.49437 10.1229 3.13449 11.8269 2.1018L11.1508 0.986252C10.2497 1.53231 9.52104 2.16984 8.9651 2.89473C8.75823 2.23641 8.43487 1.68379 7.99467 1.2436C7.14717 0.396098 5.88593 -0.0221439 4.24632 0.000902951L3.61218 0.00977012L3.60331 0.643949C3.58039 2.28363 3.99851 3.54476 4.84609 4.3923C5.54378 5.08999 6.52264 5.49542 7.76131 5.60468C7.7212 5.8187 7.69096 6.03745 7.6701 6.26062C7.48921 6.22062 7.29491 6.17089 7.09573 6.11987C5.47257 5.70413 3.01964 5.07578 1.01727 7.92428C0.0603535 9.28553 -0.228826 11.1279 0.181017 13.2522C0.665039 15.7613 2.12023 18.3629 3.56597 19.3037C5.328 20.4504 6.81471 19.9088 7.70295 19.5852C7.91823 19.5068 8.18612 19.4092 8.28811 19.4092C8.3901 19.4092 8.65799 19.5068 8.87326 19.5852C9.35463 19.7606 10.0117 20 10.7932 20C11.4537 20 12.2031 19.8289 13.0102 19.3037C14.456 18.3628 15.9111 15.7612 16.3952 13.2522C16.8049 11.1278 16.5157 9.28545 15.5588 7.92421Z" fill="black"/>
</svg>
