<svg width="21" height="20" viewBox="0 0 21 20" fill="none" xmlns="http://www.w3.org/2000/svg">
<path d="M4.59082 19.5457C4.59082 19.6663 4.63871 19.782 4.72395 19.8672C4.80919 19.9525 4.9248 20.0004 5.04535 20.0004H15.9541C16.0747 20.0004 16.1903 19.9525 16.2755 19.8672C16.3608 19.782 16.4086 19.6663 16.4086 19.5457V16.3623H4.59082V19.5457Z" fill="#BBBBBB"/>
<path d="M3.53201 10.3094L4.50016 15.4528H7.72734L7.31826 10.946C7.31289 10.8863 7.31932 10.8261 7.3372 10.7689C7.35508 10.7117 7.38405 10.6585 7.42246 10.6125C7.46087 10.5664 7.50797 10.5284 7.56106 10.5006C7.61415 10.4728 7.67219 10.4557 7.73188 10.4503C7.79157 10.445 7.85174 10.4514 7.90894 10.4693C7.96614 10.4872 8.01926 10.5162 8.06527 10.5546C8.11127 10.593 8.14926 10.6401 8.17707 10.6933C8.20487 10.7464 8.22195 10.8045 8.22732 10.8642L8.64095 15.4528H12.359L12.7726 10.8642C12.778 10.8045 12.7951 10.7464 12.8229 10.6933C12.8507 10.6401 12.8887 10.593 12.9347 10.5546C12.9807 10.5162 13.0338 10.4872 13.091 10.4693C13.1482 10.4514 13.2084 10.445 13.2681 10.4503C13.3278 10.4557 13.3858 10.4728 13.4389 10.5006C13.492 10.5284 13.5391 10.5664 13.5775 10.6125C13.6159 10.6585 13.6449 10.7117 13.6628 10.7689C13.6806 10.8261 13.6871 10.8863 13.6817 10.946L13.2726 15.4528H16.4998L17.468 10.3094C18.0296 10.1588 18.5527 9.89022 19.0025 9.52146C19.4522 9.1527 19.8182 8.69226 20.076 8.17083C20.3338 7.6494 20.4776 7.07896 20.4978 6.49755C20.5179 5.91614 20.4139 5.33712 20.1927 4.79909C19.9716 4.26105 19.6383 3.77637 19.2152 3.37736C18.7921 2.97835 18.2888 2.67417 17.7389 2.48511C17.189 2.29604 16.6051 2.22644 16.0262 2.28094C15.4473 2.33543 14.8867 2.51278 14.3817 2.80114C14.1106 1.98559 13.5897 1.27612 12.893 0.773347C12.1963 0.270571 11.359 0 10.5 0C9.64094 0 8.8037 0.270571 8.10698 0.773347C7.41025 1.27612 6.8894 1.98559 6.61828 2.80114C6.11328 2.51278 5.55265 2.33543 4.97375 2.28094C4.39485 2.22644 3.81099 2.29604 3.26109 2.48511C2.7112 2.67417 2.20791 2.97835 1.78477 3.37736C1.36164 3.77637 1.02838 4.26105 0.807218 4.79909C0.586058 5.33712 0.482077 5.91614 0.502209 6.49755C0.52234 7.07896 0.66612 7.6494 0.923964 8.17083C1.18181 8.69226 1.54779 9.1527 1.99751 9.52146C2.44723 9.89022 2.97036 10.1588 3.53201 10.3094Z" fill="#BBBBBB"/>
</svg>
