<svg width="18" height="17" viewBox="0 0 18 17" fill="none" xmlns="http://www.w3.org/2000/svg">
<path d="M13.2188 0.765625C11.6767 0.765625 10.3365 1.47149 9.34291 2.80687C9.21526 2.97846 9.10125 3.15013 9 3.31667C8.89875 3.1501 8.78477 2.97846 8.65709 2.80687C7.66357 1.47149 6.32331 0.765625 4.78125 0.765625C1.92537 0.765625 0 3.05968 0 5.87214C0 9.54266 3.48862 11.8536 8.54986 16.0714C8.68022 16.18 8.84011 16.2344 9 16.2344C9.15989 16.2344 9.31978 16.1801 9.45014 16.0714C14.5102 11.8547 18 9.54312 18 5.87214C18 3.06133 16.0763 0.765625 13.2188 0.765625ZM9 14.6174C4.33962 10.7618 1.40625 8.7185 1.40625 5.87214C1.40625 4.03336 2.56556 2.17188 4.78125 2.17188C5.86403 2.17188 6.7803 2.65707 7.50466 3.61402C8.07856 4.37223 8.31705 5.15478 8.32475 5.18037C8.41191 5.48075 8.68711 5.6875 9 5.6875C9.31338 5.6875 9.58894 5.48011 9.67567 5.17897C9.68432 5.14891 10.5724 2.17188 13.2188 2.17188C15.4344 2.17188 16.5938 4.03336 16.5938 5.87214C16.5938 8.72127 13.6456 10.7742 9 14.6174Z" fill="black"/>
</svg>
