<svg width="129" height="127" viewBox="0 0 129 127" fill="none" xmlns="http://www.w3.org/2000/svg">
<path d="M125.844 99.4449C125.402 103.474 122.139 106.622 118.095 106.905C117.76 106.928 117.428 106.952 117.096 106.973C114.63 107.14 112.713 109.188 112.713 111.66V121.005C112.713 124.148 109.115 125.932 106.615 124.028C102.052 120.553 95.9816 115.383 92.2572 110.022C91.376 108.753 89.9201 108.013 88.374 108.022C76.9068 108.08 65.4394 107.711 53.972 106.905C50.7749 106.682 48.0604 104.673 46.8511 101.846C46.5296 101.105 46.3152 100.303 46.223 99.4643C44.5246 83.9509 44.5246 68.4352 46.223 52.9195C46.6647 48.8947 49.9303 45.7622 53.9679 45.4792C71.0509 44.2805 88.1318 44.0404 105.213 44.7588C109.505 44.9367 113.8 45.1768 118.093 45.4792C122.133 45.7622 125.401 48.895 125.842 52.9195C127.54 68.4286 127.54 83.9357 125.844 99.4449Z" fill="#78D0B1"/>
<path d="M103.862 69.4651C103.862 65.6116 101.976 62.4766 99.6567 62.4766C97.3377 62.4766 95.4512 65.6116 95.4512 69.4651C95.4512 73.3186 97.3377 76.4537 99.6567 76.4537C101.976 76.4537 103.862 73.3186 103.862 69.4651Z" fill="black"/>
<path d="M77.3599 69.4651C77.3599 65.6116 75.4734 62.4766 73.1542 62.4766C70.8353 62.4766 68.9487 65.6116 68.9487 69.4651C68.9487 73.3186 70.8353 76.4537 73.1542 76.4537C75.4734 76.4537 77.3599 73.3186 77.3599 69.4651Z" fill="black"/>
<path d="M86.4056 94.3519C93.1827 94.3519 99.2641 90.3147 101.898 84.0667C102.304 83.1049 101.853 81.9967 100.891 81.5911C99.9286 81.1861 98.8209 81.6367 98.4155 82.5985C96.3735 87.4424 91.6592 90.5722 86.4056 90.5722C81.1516 90.5722 76.4374 87.4424 74.3954 82.5985C73.9902 81.6367 72.881 81.1864 71.9197 81.5911C70.9582 81.9965 70.5071 83.1049 70.9126 84.0667C73.5465 90.3147 79.6279 94.3519 86.4056 94.3519Z" fill="black"/>
<path d="M50.5975 52.4928C48.8583 68.3774 48.8583 84.2634 50.5975 100.145C50.6917 101.004 50.9117 101.824 51.2405 102.585C52.0821 104.552 53.6361 106.133 55.5737 107.014C55.0398 106.979 54.5059 106.943 53.9717 106.905C50.7744 106.681 48.0596 104.673 46.8511 101.846C46.5288 101.103 46.3139 100.302 46.2229 99.4634C44.5233 83.951 44.5233 68.4351 46.2229 52.9191C46.6644 48.8951 49.9295 45.7623 53.9669 45.4795C54.7556 45.4251 55.544 45.3704 56.3345 45.3208C53.2591 46.3791 50.9661 49.1335 50.5975 52.4928Z" fill="#66B49D"/>
<path d="M3.10825 55.1607C3.53308 59.0348 6.67119 62.0616 10.5597 62.3337C10.8815 62.3564 11.201 62.379 11.5205 62.3997C13.8916 62.5605 15.7348 64.5297 15.7348 66.9068V75.8923C15.7348 78.915 19.1944 80.6304 21.5987 78.7996C25.9864 75.4574 31.8234 70.4861 35.4048 65.3317C36.2521 64.1111 37.6521 63.3998 39.1388 63.4081C50.1655 63.4638 61.1922 63.1093 72.2189 62.3339C75.293 62.1195 77.9035 60.1876 79.0664 57.4701C79.3755 56.7567 79.5819 55.9857 79.6704 55.1793C81.3034 40.2619 81.3034 25.3426 79.6704 10.4231C79.2455 6.55304 76.1054 3.54066 72.223 3.26853C55.7964 2.11599 39.3719 1.88493 22.9473 2.57585C18.8194 2.74694 14.6898 2.978 10.5619 3.26853C6.67749 3.54066 3.5351 6.55304 3.11052 10.4231C1.47721 25.3361 1.47721 40.2472 3.10825 55.1607Z" fill="#F9DA41"/>
<path d="M45.0607 16.9884L47.9029 22.7109C48.2859 23.5023 49.314 24.2532 50.1808 24.4155L55.321 25.2678C58.6066 25.8157 59.3726 28.2103 57.0142 30.6048L53.0028 34.6431C52.3376 35.3127 51.9546 36.6318 52.1764 37.5855L53.3253 42.5775C54.2324 46.5143 52.136 48.0566 48.6891 45.9867L43.8714 43.1052C43.0046 42.5775 41.5533 42.5775 40.6865 43.1052L35.8688 45.9867C32.4219 48.0363 30.3255 46.5143 31.2326 42.5775L32.3816 37.5855C32.563 36.6115 32.18 35.2924 31.5148 34.6228L27.5034 30.5845C25.145 28.2103 25.911 25.8157 29.1966 25.2475L34.3368 24.3952C35.2036 24.2532 36.2317 23.4821 36.6147 22.6906L39.4569 16.9681C41.009 13.8836 43.5086 13.8836 45.0607 16.9884Z" stroke="black" stroke-width="4"/>
<path d="M7.31625 10.0133C5.64388 25.2873 5.64388 40.5631 7.31625 55.8341C7.40696 56.6608 7.61837 57.4492 7.9346 58.1805C8.74369 60.0723 10.2382 61.592 12.1013 62.4394C11.5877 62.4061 11.0742 62.3711 10.5609 62.3343C7.48633 62.1196 4.87611 60.1882 3.714 57.4697C3.40407 56.7558 3.19745 55.9848 3.11001 55.1789C1.4757 40.2625 1.4757 25.343 3.11001 10.4232C3.53459 6.5539 6.67421 3.54128 10.5564 3.2694C11.3146 3.21699 12.073 3.16457 12.833 3.1167C9.87557 4.13443 7.67078 6.78295 7.31625 10.0133Z" fill="#EDC932"/>
<path d="M127.719 52.7131C127.178 47.7767 123.185 43.9421 118.225 43.5954C113.876 43.2892 109.524 43.0456 105.29 42.8717C97.7475 42.5547 90.1086 42.426 82.5488 42.4827C83.0505 31.723 82.7199 20.917 81.5469 10.2179C81.0241 5.4349 77.158 1.71901 72.3548 1.38237C55.928 0.23084 39.278 -0.00349718 22.8683 0.686413C18.7689 0.856748 14.5833 1.09083 10.4277 1.38237C5.62457 1.71901 1.75674 5.43439 1.23062 10.2177C-0.40924 25.1916 -0.410248 40.3819 1.22785 55.3677C1.75498 60.1598 5.62407 63.8814 10.4265 64.2176L11.3936 64.2861C12.7686 64.3781 13.8455 65.5289 13.8455 66.9057V75.8909C13.8455 78.0143 15.0268 79.9182 16.929 80.8601C17.7149 81.2494 18.5567 81.4409 19.3933 81.4409C20.5793 81.4409 21.7546 81.0556 22.7431 80.3025C24.62 78.874 26.4063 77.4186 28.0522 75.9768C28.8371 75.2892 28.9162 74.095 28.2283 73.3101C27.5407 72.525 26.3466 72.4461 25.5617 73.1338C23.9808 74.5186 22.262 75.9186 20.4531 77.2954C19.9088 77.7101 19.2187 77.7762 18.6061 77.473C17.9918 77.1686 17.6249 76.5773 17.6249 75.8909V66.9057C17.6249 63.5463 14.9986 60.7391 11.6528 60.5153L10.6916 60.447C7.71194 60.2386 5.31162 57.9285 4.98506 54.9557C3.3767 40.2438 3.37771 25.3302 4.98758 10.6299C5.31364 7.66488 7.7127 5.36132 10.6923 5.15243C14.8124 4.86342 18.9614 4.63135 23.0263 4.46252C39.2951 3.77891 55.8036 4.01073 72.0905 5.15243C75.0686 5.36132 77.4657 7.66438 77.79 10.6291C79.4026 25.3425 79.4026 40.262 77.7897 54.9733C77.7234 55.5801 77.569 56.1682 77.3291 56.7251C76.4154 58.8591 74.4064 60.285 72.085 60.447C61.2026 61.213 50.123 61.5728 39.1515 61.5182C39.1366 61.5182 39.122 61.5182 39.1074 61.5182C37.0044 61.5182 35.0425 62.5382 33.8527 64.2516C33.0174 65.4528 31.9966 66.7205 30.8189 68.0202C30.1181 68.7935 30.1769 69.9886 30.9502 70.6896C31.7232 71.3903 32.9186 71.3319 33.6196 70.5583C34.9057 69.1392 36.028 67.7435 36.9565 66.4088C37.4398 65.7123 38.2426 65.2981 39.1104 65.2981H39.1288C40.5293 65.3051 41.9315 65.3051 43.3348 65.2988C42.7572 76.7133 43.0949 88.2662 44.3429 99.6749C44.4563 100.692 44.7156 101.675 45.1112 102.59C46.6321 106.146 49.9766 108.521 53.8369 108.789C65.2635 109.592 76.8874 109.968 88.3838 109.912H88.4027C89.3274 109.912 90.1869 110.356 90.7047 111.101C94.5922 116.696 100.879 122.036 105.469 125.531C106.484 126.304 107.69 126.7 108.908 126.7C109.766 126.7 110.631 126.503 111.437 126.104C113.389 125.137 114.602 123.183 114.602 121.004V111.661C114.602 110.189 115.752 108.959 117.223 108.86L117.265 108.857C117.588 108.835 117.911 108.813 118.226 108.789C123.186 108.443 127.179 104.599 127.721 99.6504C127.777 99.1407 127.83 98.6309 127.883 98.1184C127.991 97.0803 127.237 96.1512 126.199 96.0434C125.158 95.9348 124.232 96.6897 124.124 97.7279C124.071 98.2336 124.019 98.7368 123.964 99.2397C123.621 102.369 121.097 104.8 117.952 105.019C117.636 105.043 117.321 105.065 117.007 105.086L116.967 105.089C113.521 105.321 110.822 108.208 110.822 111.661V121.004C110.822 121.747 110.425 122.388 109.76 122.717C109.096 123.046 108.348 122.974 107.759 122.525C103.386 119.194 97.4148 114.135 93.8093 108.946C92.585 107.182 90.5664 106.133 88.4057 106.133C88.3911 106.133 88.3767 106.133 88.3621 106.133C76.9605 106.19 65.4348 105.816 54.1007 105.019C51.6598 104.849 49.5472 103.349 48.5837 101.097C48.3345 100.52 48.1715 99.9006 48.0999 99.2599C46.866 87.9789 46.5387 76.5516 47.122 65.264C55.5564 65.1537 64.0109 64.8042 72.3488 64.2173C76.0896 63.9565 79.329 61.6557 80.8016 58.217C81.1889 57.3185 81.4396 56.3653 81.5467 55.3846C81.879 52.352 82.1408 49.3104 82.3386 46.2638C89.9125 46.2028 97.5711 46.3298 105.133 46.6476C109.331 46.8202 113.646 47.0616 117.96 47.3652C121.095 47.5844 123.619 50.0061 123.961 53.1238C125.312 65.4596 125.577 77.9583 124.75 90.2724C124.68 91.3138 125.468 92.2146 126.509 92.2844C126.552 92.2874 126.595 92.289 126.637 92.289C127.623 92.289 128.454 91.5239 128.521 90.5256C129.364 77.9913 129.094 65.2691 127.719 52.7131Z" fill="black"/>
</svg>
