<svg width="165" height="42" viewBox="0 0 165 42" fill="none" xmlns="http://www.w3.org/2000/svg">
<path d="M23.0772 0.894043C7.29594 0.894043 0.290039 6.98604 0.290039 20.7567C0.290039 34.5274 7.96678 41.1075 26.6122 41.1075C32.2784 41.1075 37.336 40.5591 41.8452 39.585L41.2365 23.0123C37.0929 24.0487 33.9856 24.4745 29.7214 24.4745C24.1778 24.4745 21.9844 23.7434 21.6791 21.3673H42.8213C43.1266 20.3931 43.3696 17.7117 43.3696 15.7614C43.3696 5.58603 36.9723 0.894043 23.0811 0.894043H23.0772ZM21.4925 16.6131C21.5527 12.7144 22.1011 11.6178 24.0514 11.6178C26.0017 11.6178 26.55 12.7144 26.6103 16.6131H21.4925Z" fill="white"/>
<path d="M86.7137 19.8428C86.7137 5.70659 80.4992 0.894043 62.3418 0.894043C56.2498 0.894043 50.0333 1.44238 44.7949 2.41655L45.4036 19.4151C47.9625 17.8925 52.5922 16.9786 57.467 16.9786C63.559 16.9786 66.3027 18.3806 66.3027 21.4879V21.6104C63.9265 20.3912 60.0881 19.6601 56.2498 19.6601C47.8419 19.6601 43.7585 23.1931 43.7585 30.5063C43.7585 37.8194 47.5969 41.1075 55.4564 41.1075C60.757 41.1075 64.9007 39.5227 67.3371 36.4777L68.4124 41.1075H87.3223C86.8965 38.6088 86.7137 35.1983 86.7137 31.5407V19.8428ZM66.3007 32.1493C65.8126 32.5149 65.2643 32.6374 64.5332 32.6374C62.8279 32.6374 62.2173 31.9063 62.2173 29.5301C62.2173 27.154 62.8259 26.4229 64.5332 26.4229C65.2643 26.4229 65.8126 26.5454 66.3007 26.911V32.1513V32.1493Z" fill="white"/>
<path d="M131.683 19.8428C131.683 5.70659 125.469 0.894043 107.311 0.894043C101.219 0.894043 95.0028 1.44238 89.7644 2.41655L90.373 19.4151C92.9319 17.8925 97.5617 16.9786 102.436 16.9786C108.528 16.9786 111.272 18.3806 111.272 21.4879V21.6104C108.896 20.3912 105.058 19.6601 101.219 19.6601C92.8114 19.6601 88.728 23.1931 88.728 30.5063C88.728 37.8194 92.5664 41.1075 100.426 41.1075C105.727 41.1075 109.87 39.5227 112.307 36.4777L113.382 41.1075H132.292C131.866 38.6088 131.683 35.1983 131.683 31.5407V19.8428ZM111.272 32.1493C110.784 32.5149 110.236 32.6374 109.505 32.6374C107.799 32.6374 107.189 31.9063 107.189 29.5301C107.189 27.154 107.797 26.4229 109.505 26.4229C110.236 26.4229 110.784 26.5454 111.272 26.911V32.1513V32.1493Z" fill="white"/>
<path d="M164.71 17.6981V5.76686H154.05V0.89209H133.7V25.3243C133.7 36.7791 138.635 41.1055 151.917 41.1055C155.452 41.1055 160.872 40.8003 164.71 39.8864V22.217C163.125 22.8256 159.553 23.0706 158.151 23.0706C155.835 23.0706 154.05 22.3998 154.05 20.6342V17.7H164.71V17.6981Z" fill="white"/>
</svg>
