<svg width="17" height="20" viewBox="0 0 17 20" fill="none" xmlns="http://www.w3.org/2000/svg">
<path fill-rule="evenodd" clip-rule="evenodd" d="M8.49999 0C5.73857 0 3.5 2.23858 3.5 5C3.5 7.76142 5.73857 10 8.49999 10C11.2614 10 13.5 7.76142 13.5 5C13.5 2.23858 11.2614 0 8.49999 0Z" fill="#BBBBBB"/>
<path fill-rule="evenodd" clip-rule="evenodd" d="M5.49992 11C3.83717 11 2.23815 11.7585 1.30107 12.9004C0.825466 13.48 0.491126 14.1971 0.462016 14.9919C0.432286 15.8036 0.725276 16.5958 1.3295 17.2871C2.80206 18.9716 5.15319 20 8.49991 20C11.8466 20 14.1978 18.9716 15.6703 17.2871C16.2746 16.5958 16.5675 15.8036 16.5378 14.9919C16.5087 14.1971 16.1744 13.48 15.6988 12.9004C14.7617 11.7585 13.1627 11 11.4999 11H5.49992Z" fill="#BBBBBB"/>
</svg>
